<svg width="904" height="600" viewBox="0 0 904 600" fill="none" xmlns="http://www.w3.org/2000/svg">
<line x1="516" y1="4.37114e-08" x2="516" y2="597" stroke="url(#paint0_linear_83_2660)" stroke-width="2"/>
<line x1="646" y1="4.37114e-08" x2="646" y2="597" stroke="url(#paint1_linear_83_2660)" stroke-width="2"/>
<line x1="451" y1="4.37114e-08" x2="451" y2="597" stroke="url(#paint2_linear_83_2660)" stroke-width="2"/>
<line x1="581" y1="4.37114e-08" x2="581" y2="597" stroke="url(#paint3_linear_83_2660)" stroke-width="2"/>
<line x1="386" y1="4.37114e-08" x2="386" y2="597" stroke="url(#paint4_linear_83_2660)" stroke-width="2"/>
<line x1="321" y1="4.37114e-08" x2="321" y2="597" stroke="url(#paint5_linear_83_2660)" stroke-width="2"/>
<line x1="256" y1="4.37114e-08" x2="256" y2="597" stroke="url(#paint6_linear_83_2660)" stroke-width="2"/>
<line x1="79" y1="227" x2="821" y2="227" stroke="url(#paint7_linear_83_2660)" stroke-width="2"/>
<line x1="79" y1="97" x2="821" y2="97" stroke="url(#paint8_linear_83_2660)" stroke-width="2"/>
<line x1="79" y1="292" x2="821" y2="292" stroke="url(#paint9_linear_83_2660)" stroke-width="2"/>
<line x1="79" y1="162" x2="821" y2="162" stroke="url(#paint10_linear_83_2660)" stroke-width="2"/>
<line x1="79" y1="357" x2="821" y2="357" stroke="url(#paint11_linear_83_2660)" stroke-width="2"/>
<line x1="79" y1="422" x2="821" y2="422" stroke="url(#paint12_linear_83_2660)" stroke-width="2"/>
<line x1="79" y1="487" x2="821" y2="487" stroke="url(#paint13_linear_83_2660)" stroke-width="2"/>
<g opacity="0.5" filter="url(#filter0_f_83_2660)">
<ellipse cx="343.5" cy="328.5" rx="66.5" ry="52.5" fill="#A97AFA"/>
</g>
<g opacity="0.5" filter="url(#filter1_f_83_2660)">
<ellipse cx="419.5" cy="388.5" rx="66.5" ry="52.5" fill="#FDB186"/>
</g>
<g filter="url(#filter2_d_83_2660)">
<g clip-path="url(#clip0_83_2660)">
<rect x="369.5" y="212.5" width="161" height="161" rx="34.5" fill="url(#paint14_linear_83_2660)" stroke="url(#paint15_linear_83_2660)" stroke-width="3"/>
<g filter="url(#filter3_f_83_2660)">
<path d="M425.496 320.283C400.3 307.235 405.567 281.059 423.969 268.316C401.317 279.643 395.657 312.208 423.969 326.367C459.079 342.225 484.716 316.655 489.104 302.297L497.599 303.713L489.104 273.979L467.866 299.465L476.357 300.881C471.389 312.634 453.391 329.732 425.496 320.283Z" fill="#D63202"/>
<path d="M433.145 292.837C433.145 287.246 437.677 282.714 443.268 282.714C448.859 282.714 453.391 287.246 453.391 292.837V325.457H433.145V292.837Z" fill="#D63202"/>
<path d="M452.041 271.465C452.041 276.435 448.013 280.464 443.043 280.464C438.073 280.464 434.044 276.435 434.044 271.465C434.044 266.496 438.073 262.467 443.043 262.467C448.013 262.467 452.041 266.496 452.041 271.465Z" fill="#D63202"/>
</g>
<path d="M467.045 296.13L475.369 297.518C472.315 304.607 464.54 313.588 452.726 317.479V289.37C452.726 283.706 448.134 279.114 442.469 279.114C436.805 279.114 432.212 283.706 432.212 289.37V318.652C429.811 318.209 427.322 317.564 424.749 316.693C412.198 310.19 407.253 300.432 407.717 290.725C408.183 281.005 414.073 271.311 423.246 264.959L423.11 264.73C411.743 270.414 404.636 281.429 403.926 292.804C403.214 304.188 408.909 315.917 423.11 323.019L423.11 323.02L423.115 323.022C440.711 330.969 455.942 328.537 467.322 322.313C478.637 316.126 486.15 306.189 488.398 298.981L496.778 300.378L496.986 300.412L496.928 300.21L488.433 270.476L488.364 270.234L488.203 270.427L466.965 295.913L466.816 296.092L467.045 296.13ZM442.244 277.131C447.287 277.131 451.376 273.042 451.376 267.999C451.376 262.955 447.287 258.867 442.244 258.867C437.201 258.867 433.112 262.955 433.112 267.999C433.112 273.042 437.201 277.131 442.244 277.131Z" fill="url(#paint16_linear_83_2660)" stroke="white" stroke-width="0.266667"/>
</g>
</g>
<path d="M452.5 419L452.5 597" stroke="url(#paint17_linear_83_2660)" stroke-width="5" stroke-linecap="round"/>
<path d="M532 293.5H626C639.807 293.5 651 282.307 651 268.5V218C651 204.193 662.193 193 676 193H750.5" stroke="url(#paint18_linear_83_2660)" stroke-width="2" stroke-linecap="round" stroke-linejoin="round" stroke-dasharray="4 4"/>
<path d="M72 393H208.208C222.015 393 233.208 381.807 233.208 368V318C233.208 304.193 244.401 293 258.208 293H368" stroke="url(#paint19_linear_83_2660)" stroke-width="2" stroke-linecap="round" stroke-linejoin="round" stroke-dasharray="4 4"/>
<path d="M532 293H587.5C601.307 293 612.5 304.193 612.5 318L612.5 368C612.5 381.807 623.693 393 637.5 393H753" stroke="url(#paint20_linear_83_2660)" stroke-width="2" stroke-linecap="round" stroke-linejoin="round" stroke-dasharray="4 4"/>
<path d="M368 293H347.5C333.693 293 322.5 281.807 322.5 268V218C322.5 204.193 311.307 193 297.5 193H224" stroke="url(#paint21_linear_83_2660)" stroke-width="2" stroke-linecap="round" stroke-linejoin="round" stroke-dasharray="4 4"/>
<rect x="121" y="172" width="125" height="43" rx="10" fill="#414ECA"/>
<path d="M148.41 199.116C148.189 199.116 148.012 199.066 147.879 198.967C147.746 198.867 147.668 198.734 147.646 198.568C147.624 198.402 147.657 198.213 147.746 198.003L152.249 187.899C152.36 187.633 152.499 187.444 152.665 187.334C152.842 187.223 153.036 187.167 153.246 187.167C153.446 187.167 153.629 187.223 153.795 187.334C153.972 187.444 154.116 187.633 154.227 187.899L158.731 198.003C158.83 198.213 158.869 198.407 158.847 198.585C158.825 198.751 158.753 198.884 158.631 198.983C158.509 199.072 158.337 199.116 158.116 199.116C157.872 199.116 157.678 199.055 157.534 198.934C157.39 198.812 157.263 198.623 157.152 198.368L155.989 195.676L156.77 196.142H149.69L150.454 195.676L149.308 198.368C149.197 198.634 149.075 198.828 148.942 198.95C148.809 199.061 148.632 199.116 148.41 199.116ZM153.213 189.195L150.704 195.144L150.288 194.746H156.155L155.772 195.144L153.246 189.195H153.213ZM163.259 199.15C162.772 199.15 162.267 199.094 161.747 198.983C161.237 198.873 160.766 198.684 160.334 198.418C160.19 198.319 160.09 198.208 160.035 198.086C159.98 197.964 159.957 197.842 159.969 197.72C159.991 197.587 160.041 197.477 160.118 197.388C160.207 197.288 160.312 197.227 160.434 197.205C160.567 197.183 160.705 197.211 160.849 197.288C161.281 197.532 161.697 197.704 162.096 197.803C162.495 197.892 162.888 197.936 163.276 197.936C163.863 197.936 164.306 197.831 164.605 197.621C164.904 197.41 165.054 197.128 165.054 196.773C165.054 196.485 164.954 196.263 164.755 196.108C164.555 195.942 164.256 195.815 163.857 195.726L162.279 195.41C161.592 195.266 161.071 195.012 160.716 194.646C160.362 194.28 160.185 193.815 160.185 193.25C160.185 192.74 160.323 192.297 160.6 191.92C160.877 191.544 161.265 191.256 161.763 191.056C162.262 190.846 162.838 190.741 163.492 190.741C163.979 190.741 164.439 190.801 164.871 190.923C165.303 191.045 165.702 191.228 166.068 191.472C166.212 191.549 166.306 191.655 166.35 191.787C166.394 191.909 166.4 192.031 166.367 192.153C166.345 192.275 166.289 192.386 166.201 192.485C166.112 192.574 166.001 192.629 165.868 192.652C165.746 192.663 165.608 192.629 165.453 192.552C165.12 192.341 164.788 192.192 164.456 192.103C164.134 192.015 163.813 191.97 163.492 191.97C162.905 191.97 162.461 192.081 162.162 192.303C161.874 192.513 161.73 192.801 161.73 193.167C161.73 193.444 161.819 193.671 161.996 193.848C162.173 194.025 162.45 194.153 162.827 194.23L164.406 194.546C165.126 194.69 165.669 194.934 166.034 195.277C166.411 195.621 166.599 196.086 166.599 196.673C166.599 197.438 166.295 198.042 165.685 198.485C165.076 198.928 164.267 199.15 163.259 199.15ZM169.298 202.108C169.032 202.108 168.827 202.036 168.683 201.892C168.539 201.748 168.467 201.537 168.467 201.26V191.621C168.467 191.344 168.539 191.134 168.683 190.99C168.827 190.846 169.026 190.774 169.281 190.774C169.547 190.774 169.752 190.846 169.896 190.99C170.04 191.134 170.112 191.344 170.112 191.621V193.067L169.929 192.718C170.107 192.12 170.456 191.643 170.976 191.289C171.497 190.923 172.112 190.741 172.821 190.741C173.541 190.741 174.167 190.912 174.699 191.256C175.242 191.599 175.657 192.081 175.945 192.702C176.245 193.322 176.394 194.07 176.394 194.945C176.394 195.798 176.245 196.546 175.945 197.189C175.657 197.82 175.247 198.308 174.716 198.651C174.184 198.983 173.552 199.15 172.821 199.15C172.123 199.15 171.514 198.972 170.993 198.618C170.472 198.263 170.123 197.792 169.946 197.205H170.145V201.26C170.145 201.537 170.068 201.748 169.913 201.892C169.769 202.036 169.564 202.108 169.298 202.108ZM172.406 197.853C172.871 197.853 173.275 197.743 173.619 197.521C173.962 197.299 174.228 196.973 174.416 196.54C174.605 196.108 174.699 195.577 174.699 194.945C174.699 193.992 174.488 193.272 174.067 192.785C173.658 192.297 173.104 192.053 172.406 192.053C171.951 192.053 171.547 192.164 171.192 192.386C170.849 192.596 170.583 192.918 170.395 193.35C170.206 193.782 170.112 194.314 170.112 194.945C170.112 195.887 170.323 196.607 170.744 197.105C171.165 197.604 171.719 197.853 172.406 197.853ZM179.117 199.1C178.851 199.1 178.646 199.022 178.502 198.867C178.358 198.701 178.286 198.474 178.286 198.186V191.704C178.286 191.416 178.358 191.195 178.502 191.04C178.646 190.885 178.851 190.807 179.117 190.807C179.382 190.807 179.587 190.885 179.731 191.04C179.887 191.195 179.964 191.416 179.964 191.704V198.186C179.964 198.474 179.892 198.701 179.748 198.867C179.604 199.022 179.394 199.1 179.117 199.1ZM179.117 189.079C178.784 189.079 178.524 188.996 178.335 188.829C178.158 188.663 178.07 188.431 178.07 188.131C178.07 187.821 178.158 187.588 178.335 187.433C178.524 187.267 178.784 187.184 179.117 187.184C179.449 187.184 179.704 187.267 179.881 187.433C180.069 187.588 180.164 187.821 180.164 188.131C180.164 188.431 180.069 188.663 179.881 188.829C179.704 188.996 179.449 189.079 179.117 189.079ZM183.174 199.116C182.897 199.116 182.687 199.044 182.543 198.9C182.399 198.745 182.327 198.535 182.327 198.269V191.621C182.327 191.344 182.399 191.134 182.543 190.99C182.687 190.846 182.886 190.774 183.141 190.774C183.407 190.774 183.606 190.846 183.739 190.99C183.883 191.134 183.955 191.344 183.955 191.621V192.834H183.789C183.966 192.17 184.293 191.666 184.77 191.322C185.246 190.979 185.855 190.779 186.598 190.724C186.797 190.713 186.952 190.763 187.063 190.873C187.185 190.984 187.251 191.156 187.262 191.389C187.285 191.621 187.235 191.81 187.113 191.954C186.991 192.087 186.803 192.164 186.548 192.186L186.232 192.22C185.512 192.286 184.964 192.513 184.587 192.901C184.21 193.289 184.022 193.821 184.022 194.496V198.269C184.022 198.535 183.95 198.745 183.806 198.9C183.673 199.044 183.462 199.116 183.174 199.116ZM191.038 199.15C190.473 199.15 189.963 199.039 189.509 198.817C189.066 198.596 188.717 198.296 188.462 197.92C188.207 197.543 188.079 197.117 188.079 196.64C188.079 196.042 188.229 195.571 188.528 195.228C188.838 194.873 189.343 194.624 190.041 194.48C190.75 194.325 191.702 194.247 192.899 194.247H193.68V195.277H192.916C192.118 195.277 191.486 195.316 191.021 195.394C190.556 195.471 190.223 195.604 190.024 195.793C189.836 195.97 189.741 196.219 189.741 196.54C189.741 196.961 189.885 197.305 190.173 197.571C190.462 197.826 190.86 197.953 191.37 197.953C191.78 197.953 192.14 197.859 192.45 197.671C192.76 197.471 193.004 197.205 193.181 196.873C193.37 196.54 193.464 196.158 193.464 195.726V193.815C193.464 193.183 193.331 192.729 193.065 192.452C192.799 192.175 192.362 192.037 191.752 192.037C191.398 192.037 191.027 192.081 190.639 192.17C190.262 192.258 189.869 192.408 189.459 192.618C189.271 192.707 189.11 192.735 188.977 192.702C188.844 192.668 188.739 192.596 188.661 192.485C188.584 192.364 188.539 192.236 188.528 192.103C188.528 191.959 188.561 191.821 188.628 191.688C188.705 191.555 188.833 191.455 189.01 191.389C189.498 191.156 189.98 190.99 190.456 190.89C190.932 190.79 191.381 190.741 191.802 190.741C192.544 190.741 193.154 190.857 193.63 191.089C194.118 191.322 194.478 191.677 194.71 192.153C194.943 192.629 195.059 193.244 195.059 193.998V198.269C195.059 198.535 194.993 198.745 194.86 198.9C194.727 199.044 194.533 199.116 194.278 199.116C194.035 199.116 193.841 199.044 193.697 198.9C193.553 198.745 193.481 198.535 193.481 198.269V197.189H193.63C193.542 197.598 193.375 197.953 193.132 198.252C192.899 198.54 192.605 198.762 192.251 198.917C191.896 199.072 191.492 199.15 191.038 199.15ZM198.202 199.116C197.936 199.116 197.731 199.044 197.587 198.9C197.443 198.745 197.371 198.535 197.371 198.269V191.621C197.371 191.344 197.443 191.134 197.587 190.99C197.731 190.846 197.931 190.774 198.185 190.774C198.451 190.774 198.651 190.846 198.784 190.99C198.928 191.134 199 191.344 199 191.621V192.918L198.817 192.618C199.061 191.998 199.443 191.533 199.964 191.222C200.484 190.901 201.083 190.741 201.759 190.741C202.401 190.741 202.933 190.862 203.354 191.106C203.786 191.339 204.107 191.699 204.318 192.186C204.528 192.663 204.634 193.267 204.634 193.998V198.269C204.634 198.535 204.562 198.745 204.417 198.9C204.273 199.044 204.069 199.116 203.803 199.116C203.526 199.116 203.315 199.044 203.171 198.9C203.027 198.745 202.955 198.535 202.955 198.269V194.097C202.955 193.399 202.817 192.89 202.54 192.569C202.274 192.247 201.853 192.087 201.277 192.087C200.601 192.087 200.058 192.297 199.648 192.718C199.249 193.139 199.05 193.704 199.05 194.413V198.269C199.05 198.834 198.767 199.116 198.202 199.116ZM210.403 199.15C209.738 199.15 209.179 199.033 208.725 198.801C208.27 198.568 207.932 198.224 207.711 197.77C207.489 197.316 207.378 196.762 207.378 196.108V192.186H206.381C206.16 192.186 205.988 192.131 205.866 192.02C205.744 191.898 205.683 191.738 205.683 191.538C205.683 191.328 205.744 191.167 205.866 191.056C205.988 190.945 206.16 190.89 206.381 190.89H207.378V189.178C207.378 188.901 207.45 188.691 207.595 188.547C207.75 188.403 207.96 188.331 208.226 188.331C208.492 188.331 208.697 188.403 208.841 188.547C208.985 188.691 209.057 188.901 209.057 189.178V190.89H211.001C211.223 190.89 211.395 190.945 211.517 191.056C211.638 191.167 211.699 191.328 211.699 191.538C211.699 191.738 211.638 191.898 211.517 192.02C211.395 192.131 211.223 192.186 211.001 192.186H209.057V195.975C209.057 196.563 209.179 197.006 209.423 197.305C209.677 197.604 210.087 197.754 210.652 197.754C210.852 197.754 211.024 197.737 211.168 197.704C211.323 197.659 211.45 197.632 211.55 197.621C211.672 197.621 211.771 197.665 211.849 197.754C211.926 197.831 211.965 197.986 211.965 198.219C211.965 198.385 211.932 198.54 211.866 198.684C211.81 198.828 211.705 198.922 211.55 198.967C211.417 199.011 211.234 199.05 211.001 199.083C210.78 199.127 210.58 199.15 210.403 199.15ZM215.858 199.15C215.37 199.15 214.866 199.094 214.346 198.983C213.836 198.873 213.365 198.684 212.933 198.418C212.789 198.319 212.689 198.208 212.634 198.086C212.578 197.964 212.556 197.842 212.567 197.72C212.59 197.587 212.639 197.477 212.717 197.388C212.806 197.288 212.911 197.227 213.033 197.205C213.166 197.183 213.304 197.211 213.448 197.288C213.88 197.532 214.296 197.704 214.695 197.803C215.093 197.892 215.487 197.936 215.875 197.936C216.462 197.936 216.905 197.831 217.204 197.621C217.503 197.41 217.653 197.128 217.653 196.773C217.653 196.485 217.553 196.263 217.354 196.108C217.154 195.942 216.855 195.815 216.456 195.726L214.877 195.41C214.191 195.266 213.67 195.012 213.315 194.646C212.961 194.28 212.783 193.815 212.783 193.25C212.783 192.74 212.922 192.297 213.199 191.92C213.476 191.544 213.864 191.256 214.362 191.056C214.861 190.846 215.437 190.741 216.091 190.741C216.578 190.741 217.038 190.801 217.47 190.923C217.902 191.045 218.301 191.228 218.666 191.472C218.811 191.549 218.905 191.655 218.949 191.787C218.993 191.909 218.999 192.031 218.966 192.153C218.943 192.275 218.888 192.386 218.799 192.485C218.711 192.574 218.6 192.629 218.467 192.652C218.345 192.663 218.207 192.629 218.052 192.552C217.719 192.341 217.387 192.192 217.054 192.103C216.733 192.015 216.412 191.97 216.091 191.97C215.503 191.97 215.06 192.081 214.761 192.303C214.473 192.513 214.329 192.801 214.329 193.167C214.329 193.444 214.418 193.671 214.595 193.848C214.772 194.025 215.049 194.153 215.426 194.23L217.005 194.546C217.725 194.69 218.268 194.934 218.633 195.277C219.01 195.621 219.198 196.086 219.198 196.673C219.198 197.438 218.894 198.042 218.284 198.485C217.675 198.928 216.866 199.15 215.858 199.15Z" fill="white"/>
<rect x="726" y="169" width="129" height="43" rx="10" fill="#F94612"/>
<path d="M754.467 196.116C754.19 196.116 753.974 196.039 753.818 195.884C753.674 195.729 753.602 195.513 753.602 195.236V185.165C753.602 184.877 753.68 184.661 753.835 184.516C753.99 184.361 754.206 184.284 754.483 184.284H758.455C759.718 184.284 760.693 184.583 761.38 185.181C762.067 185.779 762.41 186.627 762.41 187.724C762.41 188.433 762.255 189.042 761.945 189.552C761.635 190.062 761.181 190.449 760.582 190.715C759.995 190.981 759.286 191.114 758.455 191.114L758.605 190.881H759.037C759.48 190.881 759.862 190.992 760.183 191.214C760.516 191.435 760.815 191.79 761.081 192.277L762.51 194.936C762.621 195.136 762.671 195.33 762.66 195.518C762.66 195.695 762.593 195.839 762.46 195.95C762.338 196.061 762.161 196.116 761.928 196.116C761.685 196.116 761.485 196.066 761.33 195.967C761.186 195.856 761.053 195.695 760.931 195.485L759.186 192.261C758.954 191.829 758.688 191.541 758.389 191.397C758.089 191.242 757.696 191.164 757.209 191.164H755.331V195.236C755.331 195.513 755.259 195.729 755.115 195.884C754.971 196.039 754.755 196.116 754.467 196.116ZM755.331 189.868H758.173C759.015 189.868 759.652 189.69 760.084 189.336C760.516 188.981 760.732 188.455 760.732 187.757C760.732 187.07 760.516 186.549 760.084 186.195C759.652 185.84 759.015 185.663 758.173 185.663H755.331V189.868ZM768.277 196.15C767.391 196.15 766.627 195.983 765.984 195.651C765.352 195.308 764.859 194.826 764.505 194.205C764.161 193.574 763.99 192.826 763.99 191.962C763.99 191.12 764.161 190.383 764.505 189.751C764.848 189.12 765.319 188.627 765.917 188.272C766.516 187.918 767.197 187.741 767.962 187.741C768.527 187.741 769.031 187.835 769.474 188.023C769.917 188.2 770.294 188.466 770.604 188.821C770.925 189.164 771.163 189.585 771.319 190.084C771.485 190.582 771.568 191.142 771.568 191.762C771.568 191.951 771.512 192.095 771.402 192.194C771.291 192.283 771.125 192.327 770.903 192.327H765.319V191.297H770.438L770.155 191.53C770.155 190.976 770.072 190.505 769.906 190.117C769.751 189.729 769.513 189.436 769.191 189.236C768.881 189.026 768.493 188.92 768.028 188.92C767.507 188.92 767.064 189.042 766.699 189.286C766.344 189.53 766.073 189.868 765.884 190.3C765.696 190.732 765.602 191.236 765.602 191.812V191.912C765.602 192.887 765.829 193.624 766.283 194.122C766.748 194.61 767.419 194.853 768.294 194.853C768.626 194.853 768.975 194.809 769.341 194.72C769.718 194.632 770.072 194.482 770.405 194.272C770.593 194.161 770.759 194.111 770.903 194.122C771.058 194.133 771.18 194.183 771.269 194.272C771.368 194.36 771.429 194.471 771.452 194.604C771.474 194.737 771.452 194.875 771.385 195.019C771.319 195.152 771.202 195.274 771.036 195.385C770.659 195.64 770.222 195.834 769.723 195.967C769.225 196.089 768.743 196.15 768.277 196.15ZM776.971 196.15C776.14 196.15 775.42 195.978 774.81 195.634C774.212 195.28 773.747 194.787 773.414 194.155C773.082 193.513 772.916 192.759 772.916 191.895C772.916 191.253 773.01 190.676 773.198 190.167C773.387 189.646 773.653 189.208 773.996 188.854C774.351 188.499 774.777 188.228 775.276 188.04C775.785 187.84 776.35 187.741 776.971 187.741C777.359 187.741 777.763 187.801 778.184 187.923C778.616 188.034 779.015 188.222 779.38 188.488C779.524 188.577 779.613 188.688 779.646 188.821C779.691 188.943 779.696 189.07 779.663 189.203C779.641 189.336 779.58 189.452 779.48 189.552C779.392 189.641 779.281 189.696 779.148 189.718C779.015 189.729 778.871 189.69 778.716 189.602C778.45 189.413 778.178 189.281 777.901 189.203C777.624 189.114 777.359 189.07 777.104 189.07C776.705 189.07 776.35 189.136 776.04 189.269C775.741 189.391 775.486 189.574 775.276 189.818C775.065 190.051 774.904 190.344 774.794 190.699C774.694 191.053 774.644 191.458 774.644 191.912C774.644 192.82 774.855 193.535 775.276 194.056C775.708 194.565 776.317 194.82 777.104 194.82C777.359 194.82 777.624 194.781 777.901 194.704C778.178 194.626 778.45 194.493 778.716 194.305C778.871 194.216 779.015 194.183 779.148 194.205C779.281 194.227 779.386 194.288 779.464 194.388C779.552 194.477 779.608 194.587 779.63 194.72C779.663 194.842 779.657 194.97 779.613 195.103C779.569 195.236 779.475 195.346 779.331 195.435C778.976 195.69 778.588 195.873 778.167 195.983C777.757 196.094 777.359 196.15 776.971 196.15ZM782.003 196.116C781.726 196.116 781.515 196.044 781.371 195.9C781.227 195.745 781.155 195.535 781.155 195.269V188.621C781.155 188.344 781.227 188.134 781.371 187.99C781.515 187.846 781.715 187.774 781.97 187.774C782.236 187.774 782.435 187.846 782.568 187.99C782.712 188.134 782.784 188.344 782.784 188.621V189.834H782.618C782.795 189.17 783.122 188.666 783.598 188.322C784.075 187.979 784.684 187.779 785.426 187.724C785.626 187.713 785.781 187.763 785.892 187.873C786.013 187.984 786.08 188.156 786.091 188.389C786.113 188.621 786.063 188.81 785.941 188.954C785.82 189.087 785.631 189.164 785.376 189.186L785.061 189.22C784.341 189.286 783.792 189.513 783.415 189.901C783.039 190.289 782.85 190.821 782.85 191.496V195.269C782.85 195.535 782.778 195.745 782.634 195.9C782.501 196.044 782.291 196.116 782.003 196.116ZM790.247 196.15C789.593 196.15 789.044 196.028 788.601 195.784C788.169 195.54 787.842 195.18 787.621 194.704C787.41 194.216 787.305 193.607 787.305 192.876V188.621C787.305 188.333 787.377 188.123 787.521 187.99C787.665 187.846 787.87 187.774 788.136 187.774C788.402 187.774 788.607 187.846 788.751 187.99C788.906 188.123 788.983 188.333 788.983 188.621V192.892C788.983 193.546 789.116 194.028 789.382 194.338C789.648 194.648 790.069 194.803 790.645 194.803C791.277 194.803 791.787 194.593 792.174 194.172C792.573 193.74 792.773 193.175 792.773 192.477V188.621C792.773 188.333 792.845 188.123 792.989 187.99C793.133 187.846 793.343 187.774 793.62 187.774C793.886 187.774 794.091 187.846 794.235 187.99C794.379 188.123 794.451 188.333 794.451 188.621V195.269C794.451 195.834 794.18 196.116 793.637 196.116C793.382 196.116 793.182 196.044 793.038 195.9C792.894 195.745 792.822 195.535 792.822 195.269V193.856L793.038 194.222C792.817 194.842 792.462 195.319 791.975 195.651C791.487 195.983 790.911 196.15 790.247 196.15ZM797.647 196.1C797.382 196.1 797.177 196.022 797.033 195.867C796.888 195.701 796.816 195.474 796.816 195.186V188.704C796.816 188.416 796.888 188.195 797.033 188.04C797.177 187.885 797.382 187.807 797.647 187.807C797.913 187.807 798.118 187.885 798.262 188.04C798.417 188.195 798.495 188.416 798.495 188.704V195.186C798.495 195.474 798.423 195.701 798.279 195.867C798.135 196.022 797.924 196.1 797.647 196.1ZM797.647 186.079C797.315 186.079 797.055 185.996 796.866 185.829C796.689 185.663 796.6 185.431 796.6 185.131C796.6 184.821 796.689 184.588 796.866 184.433C797.055 184.267 797.315 184.184 797.647 184.184C797.98 184.184 798.235 184.267 798.412 184.433C798.6 184.588 798.694 184.821 798.694 185.131C798.694 185.431 798.6 185.663 798.412 185.829C798.235 185.996 797.98 186.079 797.647 186.079ZM804.314 196.15C803.649 196.15 803.09 196.033 802.636 195.801C802.182 195.568 801.844 195.224 801.622 194.77C801.4 194.316 801.29 193.762 801.29 193.108V189.186H800.293C800.071 189.186 799.899 189.131 799.777 189.02C799.655 188.898 799.595 188.738 799.595 188.538C799.595 188.328 799.655 188.167 799.777 188.056C799.899 187.945 800.071 187.89 800.293 187.89H801.29V186.178C801.29 185.901 801.362 185.691 801.506 185.547C801.661 185.403 801.871 185.331 802.137 185.331C802.403 185.331 802.608 185.403 802.752 185.547C802.896 185.691 802.968 185.901 802.968 186.178V187.89H804.913C805.134 187.89 805.306 187.945 805.428 188.056C805.55 188.167 805.61 188.328 805.61 188.538C805.61 188.738 805.55 188.898 805.428 189.02C805.306 189.131 805.134 189.186 804.913 189.186H802.968V192.975C802.968 193.563 803.09 194.006 803.334 194.305C803.589 194.604 803.998 194.754 804.564 194.754C804.763 194.754 804.935 194.737 805.079 194.704C805.234 194.659 805.361 194.632 805.461 194.621C805.583 194.621 805.683 194.665 805.76 194.754C805.838 194.831 805.876 194.986 805.876 195.219C805.876 195.385 805.843 195.54 805.777 195.684C805.721 195.828 805.616 195.922 805.461 195.967C805.328 196.011 805.145 196.05 804.913 196.083C804.691 196.127 804.492 196.15 804.314 196.15ZM810.652 196.15C809.765 196.15 809.001 195.983 808.358 195.651C807.727 195.308 807.234 194.826 806.879 194.205C806.536 193.574 806.364 192.826 806.364 191.962C806.364 191.12 806.536 190.383 806.879 189.751C807.223 189.12 807.694 188.627 808.292 188.272C808.89 187.918 809.572 187.741 810.336 187.741C810.901 187.741 811.405 187.835 811.848 188.023C812.292 188.2 812.668 188.466 812.978 188.821C813.3 189.164 813.538 189.585 813.693 190.084C813.859 190.582 813.942 191.142 813.942 191.762C813.942 191.951 813.887 192.095 813.776 192.194C813.665 192.283 813.499 192.327 813.278 192.327H807.694V191.297H812.812L812.53 191.53C812.53 190.976 812.447 190.505 812.28 190.117C812.125 189.729 811.887 189.436 811.566 189.236C811.256 189.026 810.868 188.92 810.403 188.92C809.882 188.92 809.439 189.042 809.073 189.286C808.718 189.53 808.447 189.868 808.259 190.3C808.07 190.732 807.976 191.236 807.976 191.812V191.912C807.976 192.887 808.203 193.624 808.658 194.122C809.123 194.61 809.793 194.853 810.668 194.853C811.001 194.853 811.35 194.809 811.715 194.72C812.092 194.632 812.447 194.482 812.779 194.272C812.967 194.161 813.134 194.111 813.278 194.122C813.433 194.133 813.555 194.183 813.643 194.272C813.743 194.36 813.804 194.471 813.826 194.604C813.848 194.737 813.826 194.875 813.76 195.019C813.693 195.152 813.577 195.274 813.411 195.385C813.034 195.64 812.596 195.834 812.098 195.967C811.599 196.089 811.117 196.15 810.652 196.15ZM816.62 196.116C816.343 196.116 816.132 196.044 815.988 195.9C815.844 195.745 815.772 195.535 815.772 195.269V188.621C815.772 188.344 815.844 188.134 815.988 187.99C816.132 187.846 816.332 187.774 816.586 187.774C816.852 187.774 817.052 187.846 817.185 187.99C817.329 188.134 817.401 188.344 817.401 188.621V189.834H817.235C817.412 189.17 817.739 188.666 818.215 188.322C818.692 187.979 819.301 187.779 820.043 187.724C820.243 187.713 820.398 187.763 820.509 187.873C820.63 187.984 820.697 188.156 820.708 188.389C820.73 188.621 820.68 188.81 820.558 188.954C820.436 189.087 820.248 189.164 819.993 189.186L819.678 189.22C818.957 189.286 818.409 189.513 818.032 189.901C817.656 190.289 817.467 190.821 817.467 191.496V195.269C817.467 195.535 817.395 195.745 817.251 195.9C817.118 196.044 816.908 196.116 816.62 196.116ZM824.732 196.15C824.245 196.15 823.741 196.094 823.22 195.983C822.71 195.873 822.24 195.684 821.807 195.418C821.663 195.319 821.564 195.208 821.508 195.086C821.453 194.964 821.431 194.842 821.442 194.72C821.464 194.587 821.514 194.477 821.591 194.388C821.68 194.288 821.785 194.227 821.907 194.205C822.04 194.183 822.179 194.211 822.323 194.288C822.755 194.532 823.17 194.704 823.569 194.803C823.968 194.892 824.361 194.936 824.749 194.936C825.336 194.936 825.779 194.831 826.079 194.621C826.378 194.41 826.527 194.128 826.527 193.773C826.527 193.485 826.427 193.263 826.228 193.108C826.029 192.942 825.73 192.815 825.331 192.726L823.752 192.41C823.065 192.266 822.544 192.012 822.19 191.646C821.835 191.28 821.658 190.815 821.658 190.25C821.658 189.74 821.796 189.297 822.073 188.92C822.35 188.544 822.738 188.256 823.237 188.056C823.735 187.846 824.311 187.741 824.965 187.741C825.453 187.741 825.912 187.801 826.344 187.923C826.776 188.045 827.175 188.228 827.541 188.472C827.685 188.549 827.779 188.655 827.823 188.787C827.868 188.909 827.873 189.031 827.84 189.153C827.818 189.275 827.763 189.386 827.674 189.485C827.585 189.574 827.474 189.629 827.342 189.652C827.22 189.663 827.081 189.629 826.926 189.552C826.594 189.341 826.261 189.192 825.929 189.103C825.608 189.015 825.286 188.97 824.965 188.97C824.378 188.97 823.935 189.081 823.636 189.303C823.347 189.513 823.203 189.801 823.203 190.167C823.203 190.444 823.292 190.671 823.469 190.848C823.647 191.025 823.924 191.153 824.3 191.23L825.879 191.546C826.599 191.69 827.142 191.934 827.508 192.277C827.884 192.621 828.073 193.086 828.073 193.673C828.073 194.438 827.768 195.042 827.159 195.485C826.549 195.928 825.741 196.15 824.732 196.15Z" fill="white"/>
<rect x="700" y="372" width="115" height="43" rx="10" fill="#414ECA"/>
<path d="M728.509 399.116C728.254 399.116 728.055 399.044 727.911 398.9C727.778 398.756 727.712 398.557 727.712 398.302V387.982C727.712 387.716 727.784 387.516 727.928 387.384C728.072 387.239 728.266 387.167 728.509 387.167C728.742 387.167 728.919 387.212 729.041 387.3C729.174 387.378 729.296 387.522 729.407 387.733L733.761 395.859H733.246L737.583 387.733C737.694 387.522 737.81 387.378 737.932 387.3C738.054 387.212 738.231 387.167 738.464 387.167C738.708 387.167 738.896 387.239 739.029 387.384C739.162 387.516 739.228 387.716 739.228 387.982V398.302C739.228 398.557 739.162 398.756 739.029 398.9C738.907 399.044 738.719 399.116 738.464 399.116C738.209 399.116 738.015 399.044 737.882 398.9C737.749 398.756 737.683 398.557 737.683 398.302V389.727H738.048L734.193 396.856C734.104 397.022 734.01 397.144 733.91 397.222C733.811 397.299 733.672 397.338 733.495 397.338C733.318 397.338 733.174 397.299 733.063 397.222C732.952 397.133 732.852 397.011 732.764 396.856L728.875 389.71H729.274V398.302C729.274 398.557 729.207 398.756 729.074 398.9C728.952 399.044 728.764 399.116 728.509 399.116ZM745.615 399.15C744.729 399.15 743.965 398.983 743.322 398.651C742.69 398.308 742.197 397.826 741.843 397.205C741.499 396.574 741.328 395.826 741.328 394.962C741.328 394.12 741.499 393.383 741.843 392.751C742.186 392.12 742.657 391.627 743.255 391.272C743.854 390.918 744.535 390.741 745.3 390.741C745.865 390.741 746.369 390.835 746.812 391.023C747.255 391.2 747.632 391.466 747.942 391.821C748.263 392.164 748.501 392.585 748.657 393.084C748.823 393.582 748.906 394.142 748.906 394.762C748.906 394.951 748.85 395.095 748.74 395.194C748.629 395.283 748.463 395.327 748.241 395.327H742.657V394.297H747.776L747.493 394.53C747.493 393.976 747.41 393.505 747.244 393.117C747.089 392.729 746.851 392.436 746.529 392.236C746.219 392.026 745.831 391.92 745.366 391.92C744.845 391.92 744.402 392.042 744.037 392.286C743.682 392.53 743.411 392.868 743.222 393.3C743.034 393.732 742.94 394.236 742.94 394.812V394.912C742.94 395.887 743.167 396.624 743.621 397.122C744.086 397.61 744.757 397.853 745.632 397.853C745.964 397.853 746.313 397.809 746.679 397.72C747.056 397.632 747.41 397.482 747.743 397.272C747.931 397.161 748.097 397.111 748.241 397.122C748.396 397.133 748.518 397.183 748.607 397.272C748.706 397.36 748.767 397.471 748.79 397.604C748.812 397.737 748.79 397.875 748.723 398.019C748.657 398.152 748.54 398.274 748.374 398.385C747.997 398.64 747.56 398.834 747.061 398.967C746.563 399.089 746.081 399.15 745.615 399.15ZM751.567 399.116C751.301 399.116 751.096 399.044 750.952 398.9C750.808 398.745 750.736 398.535 750.736 398.269V391.621C750.736 391.344 750.808 391.134 750.952 390.99C751.096 390.846 751.295 390.774 751.55 390.774C751.816 390.774 752.015 390.846 752.148 390.99C752.292 391.134 752.364 391.344 752.364 391.621V392.918L752.182 392.618C752.425 391.998 752.808 391.533 753.328 391.222C753.849 390.901 754.447 390.741 755.123 390.741C755.766 390.741 756.297 390.862 756.718 391.106C757.151 391.339 757.472 391.699 757.682 392.186C757.893 392.663 757.998 393.267 757.998 393.998V398.269C757.998 398.535 757.926 398.745 757.782 398.9C757.638 399.044 757.433 399.116 757.167 399.116C756.89 399.116 756.68 399.044 756.536 398.9C756.392 398.745 756.32 398.535 756.32 398.269V394.097C756.32 393.399 756.181 392.89 755.904 392.569C755.638 392.247 755.217 392.087 754.641 392.087C753.965 392.087 753.422 392.297 753.012 392.718C752.614 393.139 752.414 393.704 752.414 394.413V398.269C752.414 398.834 752.132 399.116 751.567 399.116ZM763.768 399.15C763.103 399.15 762.543 399.033 762.089 398.801C761.635 398.568 761.297 398.224 761.075 397.77C760.854 397.316 760.743 396.762 760.743 396.108V392.186H759.746C759.524 392.186 759.353 392.131 759.231 392.02C759.109 391.898 759.048 391.738 759.048 391.538C759.048 391.328 759.109 391.167 759.231 391.056C759.353 390.945 759.524 390.89 759.746 390.89H760.743V389.178C760.743 388.901 760.815 388.691 760.959 388.547C761.114 388.403 761.325 388.331 761.591 388.331C761.857 388.331 762.061 388.403 762.205 388.547C762.35 388.691 762.422 388.901 762.422 389.178V390.89H764.366C764.588 390.89 764.759 390.945 764.881 391.056C765.003 391.167 765.064 391.328 765.064 391.538C765.064 391.738 765.003 391.898 764.881 392.02C764.759 392.131 764.588 392.186 764.366 392.186H762.422V395.975C762.422 396.563 762.543 397.006 762.787 397.305C763.042 397.604 763.452 397.754 764.017 397.754C764.216 397.754 764.388 397.737 764.532 397.704C764.687 397.659 764.815 397.632 764.914 397.621C765.036 397.621 765.136 397.665 765.213 397.754C765.291 397.831 765.33 397.986 765.33 398.219C765.33 398.385 765.297 398.54 765.23 398.684C765.175 398.828 765.069 398.922 764.914 398.967C764.781 399.011 764.599 399.05 764.366 399.083C764.144 399.127 763.945 399.15 763.768 399.15ZM769.823 399.15C769.003 399.15 768.294 398.978 767.696 398.634C767.108 398.291 766.649 397.803 766.316 397.172C765.984 396.54 765.818 395.798 765.818 394.945C765.818 394.291 765.912 393.71 766.1 393.2C766.288 392.69 766.554 392.253 766.898 391.887C767.252 391.511 767.673 391.228 768.161 391.04C768.659 390.84 769.213 390.741 769.823 390.741C770.631 390.741 771.329 390.912 771.917 391.256C772.515 391.599 772.98 392.087 773.313 392.718C773.645 393.339 773.811 394.081 773.811 394.945C773.811 395.588 773.717 396.169 773.529 396.69C773.34 397.211 773.069 397.654 772.714 398.019C772.371 398.385 771.95 398.668 771.451 398.867C770.964 399.055 770.421 399.15 769.823 399.15ZM769.823 397.853C770.277 397.853 770.676 397.743 771.019 397.521C771.363 397.299 771.629 396.973 771.817 396.54C772.016 396.108 772.116 395.577 772.116 394.945C772.116 393.992 771.906 393.272 771.485 392.785C771.064 392.297 770.51 392.053 769.823 392.053C769.357 392.053 768.953 392.164 768.61 392.386C768.266 392.596 767.995 392.918 767.795 393.35C767.607 393.782 767.513 394.314 767.513 394.945C767.513 395.887 767.723 396.607 768.144 397.105C768.565 397.604 769.125 397.853 769.823 397.853ZM776.544 399.116C776.267 399.116 776.056 399.044 775.912 398.9C775.768 398.745 775.696 398.535 775.696 398.269V391.621C775.696 391.344 775.768 391.134 775.912 390.99C776.056 390.846 776.256 390.774 776.511 390.774C776.776 390.774 776.976 390.846 777.109 390.99C777.253 391.134 777.325 391.344 777.325 391.621V392.834H777.159C777.336 392.17 777.663 391.666 778.139 391.322C778.616 390.979 779.225 390.779 779.967 390.724C780.167 390.713 780.322 390.763 780.433 390.873C780.554 390.984 780.621 391.156 780.632 391.389C780.654 391.621 780.604 391.81 780.482 391.954C780.361 392.087 780.172 392.164 779.917 392.186L779.602 392.22C778.881 392.286 778.333 392.513 777.956 392.901C777.58 393.289 777.391 393.821 777.391 394.496V398.269C777.391 398.535 777.319 398.745 777.175 398.9C777.042 399.044 776.832 399.116 776.544 399.116ZM784.656 399.15C784.169 399.15 783.665 399.094 783.144 398.983C782.635 398.873 782.164 398.684 781.732 398.418C781.588 398.319 781.488 398.208 781.432 398.086C781.377 397.964 781.355 397.842 781.366 397.72C781.388 397.587 781.438 397.477 781.516 397.388C781.604 397.288 781.709 397.227 781.831 397.205C781.964 397.183 782.103 397.211 782.247 397.288C782.679 397.532 783.094 397.704 783.493 397.803C783.892 397.892 784.285 397.936 784.673 397.936C785.26 397.936 785.703 397.831 786.003 397.621C786.302 397.41 786.451 397.128 786.451 396.773C786.451 396.485 786.352 396.263 786.152 396.108C785.953 395.942 785.654 395.815 785.255 395.726L783.676 395.41C782.989 395.266 782.468 395.012 782.114 394.646C781.759 394.28 781.582 393.815 781.582 393.25C781.582 392.74 781.72 392.297 781.997 391.92C782.274 391.544 782.662 391.256 783.161 391.056C783.659 390.846 784.235 390.741 784.889 390.741C785.377 390.741 785.836 390.801 786.268 390.923C786.701 391.045 787.099 391.228 787.465 391.472C787.609 391.549 787.703 391.655 787.748 391.787C787.792 391.909 787.797 392.031 787.764 392.153C787.742 392.275 787.687 392.386 787.598 392.485C787.509 392.574 787.399 392.629 787.266 392.652C787.144 392.663 787.005 392.629 786.85 392.552C786.518 392.341 786.185 392.192 785.853 392.103C785.532 392.015 785.21 391.97 784.889 391.97C784.302 391.97 783.859 392.081 783.56 392.303C783.272 392.513 783.128 392.801 783.128 393.167C783.128 393.444 783.216 393.671 783.393 393.848C783.571 394.025 783.848 394.153 784.224 394.23L785.803 394.546C786.523 394.69 787.066 394.934 787.432 395.277C787.808 395.621 787.997 396.086 787.997 396.673C787.997 397.438 787.692 398.042 787.083 398.485C786.473 398.928 785.665 399.15 784.656 399.15Z" fill="white"/>
<rect y="372" width="114" height="43" rx="10" fill="#F94612"/>
<path d="M32.8112 399.15C31.6257 399.15 30.612 398.906 29.77 398.418C28.928 397.931 28.2798 397.238 27.8256 396.341C27.3824 395.433 27.1609 394.363 27.1609 393.134C27.1609 392.214 27.2883 391.389 27.5431 390.657C27.7979 389.915 28.1635 389.284 28.6399 388.763C29.1274 388.231 29.7201 387.827 30.4181 387.55C31.1272 387.273 31.9249 387.134 32.8112 387.134C33.4649 387.134 34.0909 387.223 34.6891 387.4C35.2985 387.577 35.8247 387.832 36.2679 388.165C36.4563 388.286 36.5781 388.436 36.6335 388.613C36.7 388.779 36.7111 388.94 36.6668 389.095C36.6335 389.25 36.5615 389.383 36.4507 389.494C36.3399 389.594 36.1959 389.649 36.0186 389.66C35.8524 389.671 35.6696 389.61 35.4702 389.477C35.1046 389.201 34.7002 388.996 34.257 388.863C33.8139 388.73 33.3486 388.663 32.8611 388.663C32.0191 388.663 31.31 388.84 30.7339 389.195C30.1578 389.538 29.7201 390.043 29.421 390.707C29.1219 391.372 28.9723 392.181 28.9723 393.134C28.9723 394.086 29.1219 394.901 29.421 395.577C29.7201 396.241 30.1578 396.751 30.7339 397.105C31.31 397.449 32.0191 397.621 32.8611 397.621C33.3486 397.621 33.8139 397.554 34.257 397.421C34.7113 397.277 35.1378 397.067 35.5367 396.79C35.7361 396.668 35.9134 396.612 36.0685 396.624C36.2347 396.635 36.3732 396.69 36.4839 396.79C36.5947 396.889 36.6668 397.017 36.7 397.172C36.7443 397.316 36.7388 397.471 36.6834 397.637C36.6391 397.792 36.5338 397.925 36.3676 398.036C35.9134 398.402 35.376 398.679 34.7556 398.867C34.1352 399.055 33.487 399.15 32.8112 399.15ZM40.9241 399.15C40.3591 399.15 39.8495 399.039 39.3952 398.817C38.952 398.596 38.603 398.296 38.3482 397.92C38.0934 397.543 37.966 397.117 37.966 396.64C37.966 396.042 38.1156 395.571 38.4147 395.228C38.7249 394.873 39.229 394.624 39.927 394.48C40.6361 394.325 41.5889 394.247 42.7854 394.247H43.5665V395.277H42.802C42.0043 395.277 41.3728 395.316 40.9075 395.394C40.4422 395.471 40.1098 395.604 39.9104 395.793C39.722 395.97 39.6279 396.219 39.6279 396.54C39.6279 396.961 39.7719 397.305 40.06 397.571C40.348 397.826 40.7469 397.953 41.2565 397.953C41.6664 397.953 42.0265 397.859 42.3367 397.671C42.6469 397.471 42.8907 397.205 43.0679 396.873C43.2563 396.54 43.3505 396.158 43.3505 395.726V393.815C43.3505 393.183 43.2175 392.729 42.9516 392.452C42.6857 392.175 42.2481 392.037 41.6387 392.037C41.2842 392.037 40.9131 392.081 40.5253 392.17C40.1486 392.258 39.7553 392.408 39.3454 392.618C39.157 392.707 38.9964 392.735 38.8634 392.702C38.7305 392.668 38.6252 392.596 38.5477 392.485C38.4701 392.364 38.4258 392.236 38.4147 392.103C38.4147 391.959 38.4479 391.821 38.5144 391.688C38.592 391.555 38.7194 391.455 38.8966 391.389C39.3841 391.156 39.8661 390.99 40.3425 390.89C40.8189 390.79 41.2676 390.741 41.6886 390.741C42.4309 390.741 43.0402 390.857 43.5166 391.089C44.0041 391.322 44.3642 391.677 44.5969 392.153C44.8295 392.629 44.9459 393.244 44.9459 393.998V398.269C44.9459 398.535 44.8794 398.745 44.7464 398.9C44.6135 399.044 44.4196 399.116 44.1648 399.116C43.921 399.116 43.7272 399.044 43.5831 398.9C43.4391 398.745 43.3671 398.535 43.3671 398.269V397.189H43.5166C43.428 397.598 43.2618 397.953 43.0181 398.252C42.7854 398.54 42.4918 398.762 42.1373 398.917C41.7828 399.072 41.3784 399.15 40.9241 399.15ZM48.1218 399.116C47.8559 399.116 47.651 399.044 47.507 398.9C47.3629 398.745 47.2909 398.535 47.2909 398.269V391.621C47.2909 391.344 47.3629 391.134 47.507 390.99C47.651 390.846 47.8504 390.774 48.1052 390.774C48.3711 390.774 48.5706 390.846 48.7035 390.99C48.8475 391.134 48.9195 391.344 48.9195 391.621V392.984L48.7367 392.618C48.9583 392.031 49.3018 391.571 49.7671 391.239C50.2324 390.907 50.7919 390.741 51.4456 390.741C52.1214 390.741 52.6698 390.901 53.0908 391.222C53.5118 391.544 53.7999 392.037 53.955 392.702H53.7224C53.9329 392.092 54.2929 391.616 54.8026 391.272C55.3122 390.918 55.9049 390.741 56.5808 390.741C57.2012 390.741 57.7108 390.862 58.1097 391.106C58.5085 391.339 58.8077 391.699 59.0071 392.186C59.2065 392.663 59.3062 393.267 59.3062 393.998V398.269C59.3062 398.535 59.2287 398.745 59.0736 398.9C58.9295 399.044 58.7246 399.116 58.4587 399.116C58.1928 399.116 57.9878 399.044 57.8438 398.9C57.6998 398.745 57.6277 398.535 57.6277 398.269V394.081C57.6277 393.394 57.5059 392.89 57.2621 392.569C57.0295 392.247 56.6417 392.087 56.0988 392.087C55.4895 392.087 55.0075 392.297 54.653 392.718C54.2985 393.139 54.1212 393.721 54.1212 394.463V398.269C54.1212 398.535 54.0492 398.745 53.9052 398.9C53.7611 399.044 53.5562 399.116 53.2903 399.116C53.0244 399.116 52.8139 399.044 52.6588 398.9C52.5147 398.745 52.4427 398.535 52.4427 398.269V394.081C52.4427 393.394 52.3264 392.89 52.0937 392.569C51.8611 392.247 51.4733 392.087 50.9304 392.087C50.3211 392.087 49.8391 392.297 49.4846 392.718C49.1411 393.139 48.9694 393.721 48.9694 394.463V398.269C48.9694 398.834 48.6869 399.116 48.1218 399.116ZM62.4839 402.108C62.218 402.108 62.0131 402.036 61.869 401.892C61.725 401.748 61.653 401.537 61.653 401.26V391.621C61.653 391.344 61.725 391.134 61.869 390.99C62.0131 390.846 62.2125 390.774 62.4673 390.774C62.7332 390.774 62.9382 390.846 63.0822 390.99C63.2262 391.134 63.2982 391.344 63.2982 391.621V393.067L63.1154 392.718C63.2927 392.12 63.6417 391.643 64.1624 391.289C64.6831 390.923 65.298 390.741 66.0071 390.741C66.7272 390.741 67.3532 390.912 67.885 391.256C68.4279 391.599 68.8433 392.081 69.1314 392.702C69.4305 393.322 69.5801 394.07 69.5801 394.945C69.5801 395.798 69.4305 396.546 69.1314 397.189C68.8433 397.82 68.4334 398.308 67.9016 398.651C67.3698 398.983 66.7383 399.15 66.0071 399.15C65.3091 399.15 64.6997 398.972 64.179 398.618C63.6583 398.263 63.3093 397.792 63.132 397.205H63.3315V401.26C63.3315 401.537 63.2539 401.748 63.0988 401.892C62.9548 402.036 62.7498 402.108 62.4839 402.108ZM65.5916 397.853C66.0569 397.853 66.4613 397.743 66.8048 397.521C67.1482 397.299 67.4141 396.973 67.6025 396.54C67.7908 396.108 67.885 395.577 67.885 394.945C67.885 393.992 67.6745 393.272 67.2535 392.785C66.8436 392.297 66.2896 392.053 65.5916 392.053C65.1374 392.053 64.733 392.164 64.3784 392.386C64.035 392.596 63.7691 392.918 63.5808 393.35C63.3924 393.782 63.2982 394.314 63.2982 394.945C63.2982 395.887 63.5087 396.607 63.9297 397.105C64.3508 397.604 64.9047 397.853 65.5916 397.853ZM74.3633 399.15C73.7096 399.15 73.1612 399.028 72.718 398.784C72.286 398.54 71.9591 398.18 71.7375 397.704C71.527 397.216 71.4218 396.607 71.4218 395.876V391.621C71.4218 391.333 71.4938 391.123 71.6378 390.99C71.7819 390.846 71.9868 390.774 72.2527 390.774C72.5186 390.774 72.7236 390.846 72.8676 390.99C73.0227 391.123 73.1003 391.333 73.1003 391.621V395.892C73.1003 396.546 73.2332 397.028 73.4991 397.338C73.765 397.648 74.186 397.803 74.7621 397.803C75.3937 397.803 75.9033 397.593 76.2911 397.172C76.6899 396.74 76.8893 396.175 76.8893 395.477V391.621C76.8893 391.333 76.9614 391.123 77.1054 390.99C77.2494 390.846 77.4599 390.774 77.7369 390.774C78.0028 390.774 78.2078 390.846 78.3518 390.99C78.4958 391.123 78.5678 391.333 78.5678 391.621V398.269C78.5678 398.834 78.2964 399.116 77.7535 399.116C77.4987 399.116 77.2993 399.044 77.1552 398.9C77.0112 398.745 76.9392 398.535 76.9392 398.269V396.856L77.1552 397.222C76.9337 397.842 76.5791 398.319 76.0916 398.651C75.6042 398.983 75.028 399.15 74.3633 399.15ZM83.7751 399.15C83.2876 399.15 82.7835 399.094 82.2628 398.983C81.7531 398.873 81.2823 398.684 80.8502 398.418C80.7061 398.319 80.6064 398.208 80.551 398.086C80.4956 397.964 80.4735 397.842 80.4846 397.72C80.5067 397.587 80.5566 397.477 80.6341 397.388C80.7228 397.288 80.828 397.227 80.9499 397.205C81.0828 397.183 81.2213 397.211 81.3654 397.288C81.7974 397.532 82.2129 397.704 82.6118 397.803C83.0106 397.892 83.4039 397.936 83.7917 397.936C84.3789 397.936 84.822 397.831 85.1212 397.621C85.4203 397.41 85.5699 397.128 85.5699 396.773C85.5699 396.485 85.4702 396.263 85.2708 396.108C85.0713 395.942 84.7722 395.815 84.3733 395.726L82.7946 395.41C82.1077 395.266 81.5869 395.012 81.2324 394.646C80.8779 394.28 80.7006 393.815 80.7006 393.25C80.7006 392.74 80.8391 392.297 81.1161 391.92C81.3931 391.544 81.7808 391.256 82.2794 391.056C82.7779 390.846 83.3541 390.741 84.0077 390.741C84.4952 390.741 84.955 390.801 85.3871 390.923C85.8192 391.045 86.218 391.228 86.5836 391.472C86.7277 391.549 86.8218 391.655 86.8661 391.787C86.9105 391.909 86.916 392.031 86.8828 392.153C86.8606 392.275 86.8052 392.386 86.7166 392.485C86.6279 392.574 86.5172 392.629 86.3842 392.652C86.2623 392.663 86.1238 392.629 85.9687 392.552C85.6364 392.341 85.304 392.192 84.9716 392.103C84.6503 392.015 84.329 391.97 84.0077 391.97C83.4205 391.97 82.9774 392.081 82.6782 392.303C82.3902 392.513 82.2461 392.801 82.2461 393.167C82.2461 393.444 82.3348 393.671 82.512 393.848C82.6893 394.025 82.9663 394.153 83.343 394.23L84.9218 394.546C85.6419 394.69 86.1848 394.934 86.5504 395.277C86.9271 395.621 87.1154 396.086 87.1154 396.673C87.1154 397.438 86.8108 398.042 86.2014 398.485C85.592 398.928 84.7833 399.15 83.7751 399.15Z" fill="white"/>
<path d="M178.834 273.25L158 264.917L137.167 273.25L158 281.583L178.834 273.25ZM178.834 273.25V285.75M145.5 276.583V287.833C145.5 289.491 146.817 291.081 149.161 292.253C151.506 293.425 154.685 294.083 158 294.083C161.316 294.083 164.495 293.425 166.839 292.253C169.183 291.081 170.5 289.491 170.5 287.833V276.583" stroke="url(#paint22_linear_83_2660)" stroke-opacity="0.5" stroke-width="2" stroke-linecap="round" stroke-linejoin="round"/>
<path d="M594.667 183.583V179.417C594.667 178.312 595.106 177.252 595.887 176.47C596.668 175.689 597.728 175.25 598.833 175.25H607.167C608.272 175.25 609.332 175.689 610.113 176.47C610.894 177.252 611.333 178.312 611.333 179.417V183.583M603 194V194.021M584.25 196.083C590.066 199.014 596.488 200.54 603 200.54C609.512 200.54 615.934 199.014 621.75 196.083M584.25 187.75C584.25 186.645 584.689 185.585 585.47 184.804C586.252 184.022 587.312 183.583 588.417 183.583H617.583C618.688 183.583 619.748 184.022 620.53 184.804C621.311 185.585 621.75 186.645 621.75 187.75V206.5C621.75 207.605 621.311 208.665 620.53 209.446C619.748 210.228 618.688 210.667 617.583 210.667H588.417C587.312 210.667 586.252 210.228 585.47 209.446C584.689 208.665 584.25 207.605 584.25 206.5V187.75Z" stroke="url(#paint23_linear_83_2660)" stroke-opacity="0.5" stroke-width="2" stroke-linecap="round" stroke-linejoin="round"/>
<path d="M724.25 314.5H726.333M743 295.75V297.833M759.667 314.5H761.75M729.667 301.167L731.125 302.625M756.333 301.167L754.875 302.625M738.209 324.917H747.792M736.75 322.833C735.001 321.522 733.709 319.693 733.057 317.606C732.405 315.519 732.427 313.28 733.118 311.206C733.809 309.132 735.136 307.328 736.909 306.05C738.683 304.771 740.814 304.083 743 304.083C745.186 304.083 747.317 304.771 749.091 306.05C750.864 307.328 752.191 309.132 752.882 311.206C753.573 313.28 753.595 315.519 752.943 317.606C752.291 319.693 750.999 321.522 749.25 322.833C748.437 323.639 747.824 324.624 747.462 325.71C747.1 326.795 746.999 327.951 747.167 329.083C747.167 330.188 746.728 331.248 745.946 332.03C745.165 332.811 744.105 333.25 743 333.25C741.895 333.25 740.835 332.811 740.054 332.03C739.272 331.248 738.833 330.188 738.833 329.083C739.001 327.951 738.9 326.795 738.538 325.71C738.176 324.624 737.563 323.639 736.75 322.833Z" stroke="url(#paint24_linear_83_2660)" stroke-opacity="0.5" stroke-width="2" stroke-linecap="round" stroke-linejoin="round"/>
<path d="M285.25 443.25H322.75M297.75 416.167H299.833M297.75 424.5H299.833M297.75 432.833H299.833M308.167 416.167H310.25M308.167 424.5H310.25M308.167 432.833H310.25M289.417 443.25V409.917C289.417 408.812 289.856 407.752 290.637 406.97C291.418 406.189 292.478 405.75 293.583 405.75H314.417C315.522 405.75 316.582 406.189 317.363 406.97C318.144 407.752 318.583 408.812 318.583 409.917V443.25" stroke="url(#paint25_linear_83_2660)" stroke-opacity="0.5" stroke-width="2" stroke-linecap="round" stroke-linejoin="round"/>
<defs>
<filter id="filter0_f_83_2660" x="148.2" y="147.2" width="390.6" height="362.6" filterUnits="userSpaceOnUse" color-interpolation-filters="sRGB">
<feFlood flood-opacity="0" result="BackgroundImageFix"/>
<feBlend mode="normal" in="SourceGraphic" in2="BackgroundImageFix" result="shape"/>
<feGaussianBlur stdDeviation="64.4" result="effect1_foregroundBlur_83_2660"/>
</filter>
<filter id="filter1_f_83_2660" x="224.2" y="207.2" width="390.6" height="362.6" filterUnits="userSpaceOnUse" color-interpolation-filters="sRGB">
<feFlood flood-opacity="0" result="BackgroundImageFix"/>
<feBlend mode="normal" in="SourceGraphic" in2="BackgroundImageFix" result="shape"/>
<feGaussianBlur stdDeviation="64.4" result="effect1_foregroundBlur_83_2660"/>
</filter>
<filter id="filter2_d_83_2660" x="313.9" y="195.9" width="272.2" height="272.2" filterUnits="userSpaceOnUse" color-interpolation-filters="sRGB">
<feFlood flood-opacity="0" result="BackgroundImageFix"/>
<feColorMatrix in="SourceAlpha" type="matrix" values="0 0 0 0 0 0 0 0 0 0 0 0 0 0 0 0 0 0 127 0" result="hardAlpha"/>
<feOffset dy="39"/>
<feGaussianBlur stdDeviation="27.05"/>
<feComposite in2="hardAlpha" operator="out"/>
<feColorMatrix type="matrix" values="0 0 0 0 0 0 0 0 0 0 0 0 0 0 0 0 0 0 0.6 0"/>
<feBlend mode="normal" in2="BackgroundImageFix" result="effect1_dropShadow_83_2660"/>
<feBlend mode="normal" in="SourceGraphic" in2="effect1_dropShadow_83_2660" result="shape"/>
</filter>
<filter id="filter3_f_83_2660" x="399.625" y="257.293" width="103.146" height="79.2593" filterUnits="userSpaceOnUse" color-interpolation-filters="sRGB">
<feFlood flood-opacity="0" result="BackgroundImageFix"/>
<feBlend mode="normal" in="SourceGraphic" in2="BackgroundImageFix" result="shape"/>
<feGaussianBlur stdDeviation="2.58667" result="effect1_foregroundBlur_83_2660"/>
</filter>
<linearGradient id="paint0_linear_83_2660" x1="514.5" y1="-2.18557e-08" x2="514.5" y2="597" gradientUnits="userSpaceOnUse">
<stop stop-color="#131313" stop-opacity="0"/>
<stop offset="0.555" stop-color="#131313"/>
<stop offset="1" stop-color="#131313" stop-opacity="0"/>
</linearGradient>
<linearGradient id="paint1_linear_83_2660" x1="644.5" y1="-2.18557e-08" x2="644.5" y2="597" gradientUnits="userSpaceOnUse">
<stop stop-color="#131313" stop-opacity="0"/>
<stop offset="0.555" stop-color="#131313"/>
<stop offset="1" stop-color="#131313" stop-opacity="0"/>
</linearGradient>
<linearGradient id="paint2_linear_83_2660" x1="449.5" y1="-2.18557e-08" x2="449.5" y2="597" gradientUnits="userSpaceOnUse">
<stop stop-color="#131313" stop-opacity="0"/>
<stop offset="0.555" stop-color="#131313"/>
<stop offset="1" stop-color="#131313" stop-opacity="0"/>
</linearGradient>
<linearGradient id="paint3_linear_83_2660" x1="579.5" y1="-2.18557e-08" x2="579.5" y2="597" gradientUnits="userSpaceOnUse">
<stop stop-color="#131313" stop-opacity="0"/>
<stop offset="0.555" stop-color="#131313"/>
<stop offset="1" stop-color="#131313" stop-opacity="0"/>
</linearGradient>
<linearGradient id="paint4_linear_83_2660" x1="384.5" y1="-2.18557e-08" x2="384.5" y2="597" gradientUnits="userSpaceOnUse">
<stop stop-color="#131313" stop-opacity="0"/>
<stop offset="0.555" stop-color="#131313"/>
<stop offset="1" stop-color="#131313" stop-opacity="0"/>
</linearGradient>
<linearGradient id="paint5_linear_83_2660" x1="319.5" y1="-2.18557e-08" x2="319.5" y2="597" gradientUnits="userSpaceOnUse">
<stop stop-color="#131313" stop-opacity="0"/>
<stop offset="0.555" stop-color="#131313"/>
<stop offset="1" stop-color="#131313" stop-opacity="0"/>
</linearGradient>
<linearGradient id="paint6_linear_83_2660" x1="254.5" y1="-2.18557e-08" x2="254.5" y2="597" gradientUnits="userSpaceOnUse">
<stop stop-color="#131313" stop-opacity="0"/>
<stop offset="0.555" stop-color="#131313"/>
<stop offset="1" stop-color="#131313" stop-opacity="0"/>
</linearGradient>
<linearGradient id="paint7_linear_83_2660" x1="79" y1="228.5" x2="821" y2="228.5" gradientUnits="userSpaceOnUse">
<stop stop-color="#131313" stop-opacity="0"/>
<stop offset="0.555" stop-color="#131313"/>
<stop offset="1" stop-color="#131313" stop-opacity="0"/>
</linearGradient>
<linearGradient id="paint8_linear_83_2660" x1="79" y1="98.5" x2="821" y2="98.5" gradientUnits="userSpaceOnUse">
<stop stop-color="#131313" stop-opacity="0"/>
<stop offset="0.555" stop-color="#131313"/>
<stop offset="1" stop-color="#131313" stop-opacity="0"/>
</linearGradient>
<linearGradient id="paint9_linear_83_2660" x1="79" y1="293.5" x2="821" y2="293.5" gradientUnits="userSpaceOnUse">
<stop stop-color="#131313" stop-opacity="0"/>
<stop offset="0.555" stop-color="#131313"/>
<stop offset="1" stop-color="#131313" stop-opacity="0"/>
</linearGradient>
<linearGradient id="paint10_linear_83_2660" x1="79" y1="163.5" x2="821" y2="163.5" gradientUnits="userSpaceOnUse">
<stop stop-color="#131313" stop-opacity="0"/>
<stop offset="0.555" stop-color="#131313"/>
<stop offset="1" stop-color="#131313" stop-opacity="0"/>
</linearGradient>
<linearGradient id="paint11_linear_83_2660" x1="79" y1="358.5" x2="821" y2="358.5" gradientUnits="userSpaceOnUse">
<stop stop-color="#131313" stop-opacity="0"/>
<stop offset="0.555" stop-color="#131313"/>
<stop offset="1" stop-color="#131313" stop-opacity="0"/>
</linearGradient>
<linearGradient id="paint12_linear_83_2660" x1="79" y1="423.5" x2="821" y2="423.5" gradientUnits="userSpaceOnUse">
<stop stop-color="#131313" stop-opacity="0"/>
<stop offset="0.555" stop-color="#131313"/>
<stop offset="1" stop-color="#131313" stop-opacity="0"/>
</linearGradient>
<linearGradient id="paint13_linear_83_2660" x1="79" y1="488.5" x2="821" y2="488.5" gradientUnits="userSpaceOnUse">
<stop stop-color="#131313" stop-opacity="0"/>
<stop offset="0.555" stop-color="#131313"/>
<stop offset="1" stop-color="#131313" stop-opacity="0"/>
</linearGradient>
<linearGradient id="paint14_linear_83_2660" x1="450" y1="304.5" x2="450" y2="375" gradientUnits="userSpaceOnUse">
<stop stop-color="#F94612"/>
<stop offset="1" stop-color="#D22F00"/>
</linearGradient>
<linearGradient id="paint15_linear_83_2660" x1="368" y1="188" x2="518.5" y2="389" gradientUnits="userSpaceOnUse">
<stop stop-color="#FF9C80"/>
<stop offset="1" stop-color="#F94612"/>
</linearGradient>
<linearGradient id="paint16_linear_83_2660" x1="430.667" y1="263.4" x2="474" y2="333.267" gradientUnits="userSpaceOnUse">
<stop stop-color="#F3F0FF"/>
<stop offset="1" stop-color="#FFE0D8"/>
</linearGradient>
<linearGradient id="paint17_linear_83_2660" x1="449.5" y1="419" x2="449.5" y2="597" gradientUnits="userSpaceOnUse">
<stop stop-color="#FBD19E" stop-opacity="0"/>
<stop offset="1" stop-color="#FBD29F"/>
</linearGradient>
<linearGradient id="paint18_linear_83_2660" x1="532" y1="293" x2="740.5" y2="189" gradientUnits="userSpaceOnUse">
<stop stop-color="#6B6B6B"/>
<stop offset="1" stop-color="#D1D1D1" stop-opacity="0"/>
</linearGradient>
<linearGradient id="paint19_linear_83_2660" x1="244" y1="312" x2="107.5" y2="395.5" gradientUnits="userSpaceOnUse">
<stop stop-color="#6B6B6B"/>
<stop offset="1" stop-color="#D1D1D1" stop-opacity="0"/>
</linearGradient>
<linearGradient id="paint20_linear_83_2660" x1="537" y1="288.5" x2="736" y2="393" gradientUnits="userSpaceOnUse">
<stop stop-color="#6B6B6B"/>
<stop offset="1" stop-color="#D1D1D1" stop-opacity="0"/>
</linearGradient>
<linearGradient id="paint21_linear_83_2660" x1="364.5" y1="293" x2="240" y2="193" gradientUnits="userSpaceOnUse">
<stop stop-color="#6B6B6B"/>
<stop offset="1" stop-color="#D1D1D1" stop-opacity="0"/>
</linearGradient>
<linearGradient id="paint22_linear_83_2660" x1="158" y1="264.917" x2="158" y2="294.083" gradientUnits="userSpaceOnUse">
<stop stop-color="white"/>
<stop offset="1" stop-color="#999999"/>
</linearGradient>
<linearGradient id="paint23_linear_83_2660" x1="603" y1="175.25" x2="603" y2="210.667" gradientUnits="userSpaceOnUse">
<stop stop-color="white"/>
<stop offset="1" stop-color="#999999"/>
</linearGradient>
<linearGradient id="paint24_linear_83_2660" x1="743" y1="295.75" x2="743" y2="333.25" gradientUnits="userSpaceOnUse">
<stop stop-color="white"/>
<stop offset="1" stop-color="#999999"/>
</linearGradient>
<linearGradient id="paint25_linear_83_2660" x1="304" y1="405.75" x2="304" y2="443.25" gradientUnits="userSpaceOnUse">
<stop stop-color="white"/>
<stop offset="1" stop-color="#999999"/>
</linearGradient>
<clipPath id="clip0_83_2660">
<rect x="368" y="211" width="164" height="164" rx="36" fill="white"/>
</clipPath>
</defs>
</svg>
