<svg width="1100" height="600" viewBox="0 0 1100 600" fill="none" xmlns="http://www.w3.org/2000/svg">
<g clip-path="url(#clip0_2728_3330)">
<rect width="1100" height="600" rx="30" fill="#141111"/>
<path d="M1041.51 55.18C1040.92 55.18 1040.31 55.08 1039.67 54.88C1039.04 54.6667 1038.47 54.3533 1037.95 53.94C1037.77 53.82 1037.66 53.6733 1037.61 53.5C1037.57 53.3133 1037.57 53.14 1037.61 52.98C1037.65 52.8067 1037.73 52.66 1037.85 52.54C1037.97 52.4067 1038.11 52.3333 1038.29 52.32C1038.47 52.2933 1038.67 52.3467 1038.87 52.48C1039.32 52.8133 1039.77 53.0533 1040.21 53.2C1040.66 53.3467 1041.11 53.42 1041.55 53.42C1042.37 53.42 1043.07 53.22 1043.65 52.82C1044.22 52.42 1044.65 51.82 1044.95 51.02C1045.24 50.22 1045.39 49.2267 1045.39 48.04V46.34H1045.61C1045.51 47.0467 1045.29 47.6667 1044.93 48.2C1044.58 48.7333 1044.13 49.14 1043.57 49.42C1043.01 49.7 1042.39 49.84 1041.71 49.84C1040.89 49.84 1040.17 49.6467 1039.53 49.26C1038.89 48.8733 1038.39 48.34 1038.03 47.66C1037.67 46.98 1037.49 46.2133 1037.49 45.36C1037.49 44.4533 1037.68 43.6533 1038.07 42.96C1038.45 42.2533 1038.99 41.7067 1039.67 41.32C1040.36 40.92 1041.15 40.72 1042.05 40.72C1043.19 40.72 1044.16 40.9933 1044.95 41.54C1045.73 42.0733 1046.33 42.86 1046.75 43.9C1047.17 44.94 1047.39 46.1867 1047.39 47.64C1047.39 48.8533 1047.25 49.9267 1046.99 50.86C1046.72 51.7933 1046.33 52.58 1045.83 53.22C1045.32 53.86 1044.7 54.3467 1043.97 54.68C1043.25 55.0133 1042.43 55.18 1041.51 55.18ZM1042.19 48.14C1042.72 48.14 1043.19 48.02 1043.61 47.78C1044.02 47.54 1044.34 47.2 1044.57 46.76C1044.81 46.32 1044.93 45.82 1044.93 45.26C1044.93 44.6867 1044.81 44.1867 1044.57 43.76C1044.34 43.32 1044.02 42.98 1043.61 42.74C1043.19 42.5 1042.72 42.38 1042.19 42.38C1041.64 42.38 1041.16 42.5 1040.75 42.74C1040.35 42.98 1040.03 43.32 1039.79 43.76C1039.56 44.1867 1039.45 44.6867 1039.45 45.26C1039.45 45.82 1039.56 46.32 1039.79 46.76C1040.03 47.2 1040.35 47.54 1040.75 47.78C1041.16 48.02 1041.64 48.14 1042.19 48.14ZM1053.5 55.18C1052.91 55.18 1052.3 55.08 1051.66 54.88C1051.03 54.6667 1050.46 54.3533 1049.94 53.94C1049.77 53.82 1049.65 53.6733 1049.6 53.5C1049.56 53.3133 1049.56 53.14 1049.6 52.98C1049.64 52.8067 1049.72 52.66 1049.84 52.54C1049.96 52.4067 1050.11 52.3333 1050.28 52.32C1050.47 52.2933 1050.66 52.3467 1050.86 52.48C1051.31 52.8133 1051.76 53.0533 1052.2 53.2C1052.65 53.3467 1053.1 53.42 1053.54 53.42C1054.37 53.42 1055.07 53.22 1055.64 52.82C1056.21 52.42 1056.65 51.82 1056.94 51.02C1057.23 50.22 1057.38 49.2267 1057.38 48.04V46.34H1057.6C1057.51 47.0467 1057.28 47.6667 1056.92 48.2C1056.57 48.7333 1056.12 49.14 1055.56 49.42C1055 49.7 1054.38 49.84 1053.7 49.84C1052.89 49.84 1052.16 49.6467 1051.52 49.26C1050.88 48.8733 1050.38 48.34 1050.02 47.66C1049.66 46.98 1049.48 46.2133 1049.48 45.36C1049.48 44.4533 1049.67 43.6533 1050.06 42.96C1050.45 42.2533 1050.98 41.7067 1051.66 41.32C1052.35 40.92 1053.15 40.72 1054.04 40.72C1055.19 40.72 1056.15 40.9933 1056.94 41.54C1057.73 42.0733 1058.33 42.86 1058.74 43.9C1059.17 44.94 1059.38 46.1867 1059.38 47.64C1059.38 48.8533 1059.25 49.9267 1058.98 50.86C1058.71 51.7933 1058.33 52.58 1057.82 53.22C1057.31 53.86 1056.69 54.3467 1055.96 54.68C1055.24 55.0133 1054.42 55.18 1053.5 55.18ZM1054.18 48.14C1054.71 48.14 1055.19 48.02 1055.6 47.78C1056.01 47.54 1056.33 47.2 1056.56 46.76C1056.8 46.32 1056.92 45.82 1056.92 45.26C1056.92 44.6867 1056.8 44.1867 1056.56 43.76C1056.33 43.32 1056.01 42.98 1055.6 42.74C1055.19 42.5 1054.71 42.38 1054.18 42.38C1053.63 42.38 1053.15 42.5 1052.74 42.74C1052.34 42.98 1052.02 43.32 1051.78 43.76C1051.55 44.1867 1051.44 44.6867 1051.44 45.26C1051.44 45.82 1051.55 46.32 1051.78 46.76C1052.02 47.2 1052.34 47.54 1052.74 47.78C1053.15 48.02 1053.63 48.14 1054.18 48.14ZM1062.93 55.08C1062.54 55.08 1062.23 54.96 1061.99 54.72C1061.75 54.48 1061.63 54.1733 1061.63 53.8C1061.63 53.4267 1061.75 53.1267 1061.99 52.9C1062.23 52.66 1062.54 52.54 1062.93 52.54C1063.32 52.54 1063.62 52.66 1063.85 52.9C1064.08 53.1267 1064.19 53.4267 1064.19 53.8C1064.19 54.1733 1064.08 54.48 1063.85 54.72C1063.62 54.96 1063.32 55.08 1062.93 55.08ZM1070.24 55.18C1069.65 55.18 1069.04 55.08 1068.4 54.88C1067.77 54.6667 1067.2 54.3533 1066.68 53.94C1066.5 53.82 1066.39 53.6733 1066.34 53.5C1066.3 53.3133 1066.3 53.14 1066.34 52.98C1066.38 52.8067 1066.46 52.66 1066.58 52.54C1066.7 52.4067 1066.84 52.3333 1067.02 52.32C1067.2 52.2933 1067.4 52.3467 1067.6 52.48C1068.05 52.8133 1068.5 53.0533 1068.94 53.2C1069.39 53.3467 1069.84 53.42 1070.28 53.42C1071.1 53.42 1071.8 53.22 1072.38 52.82C1072.95 52.42 1073.38 51.82 1073.68 51.02C1073.97 50.22 1074.12 49.2267 1074.12 48.04V46.34H1074.34C1074.24 47.0467 1074.02 47.6667 1073.66 48.2C1073.31 48.7333 1072.86 49.14 1072.3 49.42C1071.74 49.7 1071.12 49.84 1070.44 49.84C1069.62 49.84 1068.9 49.6467 1068.26 49.26C1067.62 48.8733 1067.12 48.34 1066.76 47.66C1066.4 46.98 1066.22 46.2133 1066.22 45.36C1066.22 44.4533 1066.41 43.6533 1066.8 42.96C1067.18 42.2533 1067.72 41.7067 1068.4 41.32C1069.09 40.92 1069.88 40.72 1070.78 40.72C1071.92 40.72 1072.89 40.9933 1073.68 41.54C1074.46 42.0733 1075.06 42.86 1075.48 43.9C1075.9 44.94 1076.12 46.1867 1076.12 47.64C1076.12 48.8533 1075.98 49.9267 1075.72 50.86C1075.45 51.7933 1075.06 52.58 1074.56 53.22C1074.05 53.86 1073.43 54.3467 1072.7 54.68C1071.98 55.0133 1071.16 55.18 1070.24 55.18ZM1070.92 48.14C1071.45 48.14 1071.92 48.02 1072.34 47.78C1072.75 47.54 1073.07 47.2 1073.3 46.76C1073.54 46.32 1073.66 45.82 1073.66 45.26C1073.66 44.6867 1073.54 44.1867 1073.3 43.76C1073.07 43.32 1072.75 42.98 1072.34 42.74C1071.92 42.5 1071.45 42.38 1070.92 42.38C1070.37 42.38 1069.89 42.5 1069.48 42.74C1069.08 42.98 1068.76 43.32 1068.52 43.76C1068.29 44.1867 1068.18 44.6867 1068.18 45.26C1068.18 45.82 1068.29 46.32 1068.52 46.76C1068.76 47.2 1069.08 47.54 1069.48 47.78C1069.89 48.02 1070.37 48.14 1070.92 48.14ZM1083.53 54.94C1083.42 55.14 1083.28 55.2733 1083.11 55.34C1082.95 55.4067 1082.79 55.42 1082.63 55.38C1082.47 55.34 1082.34 55.26 1082.23 55.14C1082.12 55.02 1082.06 54.8733 1082.03 54.7C1082.02 54.5267 1082.06 54.34 1082.17 54.14L1089.73 41C1089.84 40.7867 1089.97 40.6467 1090.13 40.58C1090.3 40.5133 1090.46 40.5 1090.61 40.54C1090.77 40.58 1090.9 40.66 1091.01 40.78C1091.13 40.9 1091.2 41.0467 1091.23 41.22C1091.26 41.3933 1091.21 41.58 1091.09 41.78L1083.53 54.94ZM1081.75 49.34C1080.66 49.34 1079.8 48.96 1079.19 48.2C1078.58 47.4267 1078.27 46.3667 1078.27 45.02C1078.27 44.1133 1078.41 43.34 1078.69 42.7C1078.97 42.06 1079.37 41.5733 1079.89 41.24C1080.41 40.8933 1081.03 40.72 1081.75 40.72C1082.83 40.72 1083.68 41.1 1084.29 41.86C1084.92 42.62 1085.23 43.6733 1085.23 45.02C1085.23 45.9133 1085.09 46.6867 1084.81 47.34C1084.54 47.98 1084.15 48.4733 1083.63 48.82C1083.11 49.1667 1082.48 49.34 1081.75 49.34ZM1081.75 47.92C1082.12 47.92 1082.44 47.8133 1082.71 47.6C1082.98 47.3867 1083.18 47.0667 1083.31 46.64C1083.46 46.2133 1083.53 45.6733 1083.53 45.02C1083.53 44.0467 1083.37 43.32 1083.05 42.84C1082.74 42.36 1082.31 42.12 1081.75 42.12C1081.38 42.12 1081.06 42.2267 1080.79 42.44C1080.52 42.6533 1080.32 42.9733 1080.17 43.4C1080.04 43.8267 1079.97 44.3667 1079.97 45.02C1079.97 46.0067 1080.12 46.74 1080.43 47.22C1080.75 47.6867 1081.19 47.92 1081.75 47.92ZM1091.53 55.18C1090.45 55.18 1089.6 54.8 1088.99 54.04C1088.38 53.28 1088.07 52.22 1088.07 50.86C1088.07 49.9667 1088.2 49.2 1088.47 48.56C1088.75 47.92 1089.15 47.4267 1089.67 47.08C1090.19 46.7333 1090.81 46.56 1091.53 46.56C1092.62 46.56 1093.48 46.9467 1094.09 47.72C1094.7 48.48 1095.01 49.5267 1095.01 50.86C1095.01 51.7667 1094.87 52.5467 1094.59 53.2C1094.32 53.84 1093.93 54.3333 1093.41 54.68C1092.89 55.0133 1092.26 55.18 1091.53 55.18ZM1091.53 53.78C1091.9 53.78 1092.22 53.6733 1092.49 53.46C1092.76 53.2467 1092.96 52.9267 1093.09 52.5C1093.24 52.06 1093.31 51.5133 1093.31 50.86C1093.31 49.9 1093.15 49.18 1092.83 48.7C1092.52 48.22 1092.09 47.98 1091.53 47.98C1091.17 47.98 1090.85 48.0867 1090.57 48.3C1090.3 48.5133 1090.1 48.8333 1089.95 49.26C1089.82 49.6867 1089.75 50.22 1089.75 50.86C1089.75 51.8467 1089.91 52.58 1090.23 53.06C1090.55 53.54 1090.98 53.78 1091.53 53.78Z" fill="url(#paint0_linear_2728_3330)"/>
<path d="M40 530.18C38.36 530.18 37.1067 529.56 36.24 528.32C35.3867 527.067 34.96 525.273 34.96 522.94C34.96 521.353 35.1533 520.027 35.54 518.96C35.9267 517.893 36.4933 517.087 37.24 516.54C37.9867 515.993 38.9067 515.72 40 515.72C41.6533 515.72 42.9067 516.333 43.76 517.56C44.6133 518.773 45.04 520.56 45.04 522.92C45.04 524.48 44.8467 525.8 44.46 526.88C44.0733 527.96 43.5067 528.78 42.76 529.34C42.0133 529.9 41.0933 530.18 40 530.18ZM40 528.46C41.0267 528.46 41.78 528.013 42.26 527.12C42.7533 526.213 43 524.813 43 522.92C43 521.013 42.7533 519.627 42.26 518.76C41.78 517.88 41.0267 517.44 40 517.44C38.9867 517.44 38.2333 517.88 37.74 518.76C37.2467 519.627 37 521.013 37 522.92C37 524.813 37.2467 526.213 37.74 527.12C38.2333 528.013 38.9867 528.46 40 528.46ZM52.2522 529.94C52.1455 530.14 52.0055 530.273 51.8322 530.34C51.6722 530.407 51.5122 530.42 51.3522 530.38C51.1922 530.34 51.0589 530.26 50.9522 530.14C50.8455 530.02 50.7789 529.873 50.7522 529.7C50.7389 529.527 50.7855 529.34 50.8922 529.14L58.4522 516C58.5589 515.787 58.6922 515.647 58.8522 515.58C59.0255 515.513 59.1855 515.5 59.3322 515.54C59.4922 515.58 59.6255 515.66 59.7322 515.78C59.8522 515.9 59.9255 516.047 59.9522 516.22C59.9789 516.393 59.9322 516.58 59.8122 516.78L52.2522 529.94ZM50.4722 524.34C49.3789 524.34 48.5255 523.96 47.9122 523.2C47.2989 522.427 46.9922 521.367 46.9922 520.02C46.9922 519.113 47.1322 518.34 47.4122 517.7C47.6922 517.06 48.0922 516.573 48.6122 516.24C49.1322 515.893 49.7522 515.72 50.4722 515.72C51.5522 515.72 52.3989 516.1 53.0122 516.86C53.6389 517.62 53.9522 518.673 53.9522 520.02C53.9522 520.913 53.8122 521.687 53.5322 522.34C53.2655 522.98 52.8722 523.473 52.3522 523.82C51.8322 524.167 51.2055 524.34 50.4722 524.34ZM50.4722 522.92C50.8455 522.92 51.1655 522.813 51.4322 522.6C51.6989 522.387 51.8989 522.067 52.0322 521.64C52.1789 521.213 52.2522 520.673 52.2522 520.02C52.2522 519.047 52.0922 518.32 51.7722 517.84C51.4655 517.36 51.0322 517.12 50.4722 517.12C50.0989 517.12 49.7789 517.227 49.5122 517.44C49.2455 517.653 49.0389 517.973 48.8922 518.4C48.7589 518.827 48.6922 519.367 48.6922 520.02C48.6922 521.007 48.8455 521.74 49.1522 522.22C49.4722 522.687 49.9122 522.92 50.4722 522.92ZM60.2522 530.18C59.1722 530.18 58.3255 529.8 57.7122 529.04C57.0989 528.28 56.7922 527.22 56.7922 525.86C56.7922 524.967 56.9255 524.2 57.1922 523.56C57.4722 522.92 57.8722 522.427 58.3922 522.08C58.9122 521.733 59.5322 521.56 60.2522 521.56C61.3455 521.56 62.1989 521.947 62.8122 522.72C63.4255 523.48 63.7322 524.527 63.7322 525.86C63.7322 526.767 63.5922 527.547 63.3122 528.2C63.0455 528.84 62.6522 529.333 62.1322 529.68C61.6122 530.013 60.9855 530.18 60.2522 530.18ZM60.2522 528.78C60.6255 528.78 60.9455 528.673 61.2122 528.46C61.4789 528.247 61.6789 527.927 61.8122 527.5C61.9589 527.06 62.0322 526.513 62.0322 525.86C62.0322 524.9 61.8722 524.18 61.5522 523.7C61.2455 523.22 60.8122 522.98 60.2522 522.98C59.8922 522.98 59.5722 523.087 59.2922 523.3C59.0255 523.513 58.8189 523.833 58.6722 524.26C58.5389 524.687 58.4722 525.22 58.4722 525.86C58.4722 526.847 58.6322 527.58 58.9522 528.06C59.2722 528.54 59.7055 528.78 60.2522 528.78Z" fill="#8B8B8B"/>
<line x1="0.5" y1="-0.5" x2="499.5" y2="-0.5" transform="matrix(0 -1 -1 0 70 535)" stroke="white" stroke-opacity="0.1" stroke-linecap="round" stroke-dasharray="10 10"/>
<line x1="0.5" y1="-0.5" x2="499.5" y2="-0.5" transform="matrix(0 -1 -1 0 166 535)" stroke="white" stroke-opacity="0.1" stroke-linecap="round" stroke-dasharray="10 10"/>
<line x1="0.5" y1="-0.5" x2="499.5" y2="-0.5" transform="matrix(0 -1 -1 0 262 535)" stroke="white" stroke-opacity="0.1" stroke-linecap="round" stroke-dasharray="10 10"/>
<line x1="0.5" y1="-0.5" x2="499.5" y2="-0.5" transform="matrix(0 -1 -1 0 358 535)" stroke="white" stroke-opacity="0.1" stroke-linecap="round" stroke-dasharray="10 10"/>
<line x1="0.5" y1="-0.5" x2="499.5" y2="-0.5" transform="matrix(0 -1 -1 0 454 535)" stroke="white" stroke-opacity="0.1" stroke-linecap="round" stroke-dasharray="10 10"/>
<line x1="0.5" y1="-0.5" x2="499.5" y2="-0.5" transform="matrix(0 -1 -1 0 550 535)" stroke="white" stroke-opacity="0.1" stroke-linecap="round" stroke-dasharray="10 10"/>
<line x1="0.5" y1="-0.5" x2="499.5" y2="-0.5" transform="matrix(0 -1 -1 0 646 535)" stroke="white" stroke-opacity="0.1" stroke-linecap="round" stroke-dasharray="10 10"/>
<line x1="0.5" y1="-0.5" x2="499.5" y2="-0.5" transform="matrix(0 -1 -1 0 742 535)" stroke="white" stroke-opacity="0.1" stroke-linecap="round" stroke-dasharray="10 10"/>
<line x1="0.5" y1="-0.5" x2="499.5" y2="-0.5" transform="matrix(0 -1 -1 0 838 535)" stroke="white" stroke-opacity="0.1" stroke-linecap="round" stroke-dasharray="10 10"/>
<line x1="0.5" y1="-0.5" x2="499.5" y2="-0.5" transform="matrix(0 -1 -1 0 934 535)" stroke="white" stroke-opacity="0.1" stroke-linecap="round" stroke-dasharray="10 10"/>
<line x1="0.5" y1="-0.5" x2="499.5" y2="-0.5" transform="matrix(0 -1 -1 0 1030 535)" stroke="white" stroke-opacity="0.1" stroke-linecap="round" stroke-dasharray="10 10"/>
<line x1="40" y1="534.5" x2="1060" y2="534.5" stroke="white" stroke-opacity="0.5"/>
<path d="M55.0449 559C54.7929 559 54.6109 558.944 54.4989 558.832C54.3869 558.711 54.3309 558.547 54.3309 558.342C54.3309 558.211 54.3636 558.085 54.4289 557.964C54.4943 557.843 54.5876 557.717 54.7089 557.586L57.6909 554.394C58.1483 553.909 58.4749 553.465 58.6709 553.064C58.8763 552.653 58.9789 552.243 58.9789 551.832C58.9789 551.309 58.8203 550.913 58.5029 550.642C58.1856 550.371 57.7189 550.236 57.1029 550.236C56.7296 550.236 56.3703 550.292 56.0249 550.404C55.6796 550.516 55.3343 550.698 54.9889 550.95C54.8489 551.043 54.7183 551.085 54.5969 551.076C54.4756 551.067 54.3683 551.02 54.2749 550.936C54.1909 550.852 54.1349 550.749 54.1069 550.628C54.0789 550.507 54.0836 550.381 54.1209 550.25C54.1583 550.119 54.2469 550.007 54.3869 549.914C54.7696 549.625 55.2129 549.401 55.7169 549.242C56.2209 549.083 56.7343 549.004 57.2569 549.004C57.9383 549.004 58.5123 549.111 58.9789 549.326C59.4549 549.531 59.8143 549.835 60.0569 550.236C60.2996 550.637 60.4209 551.127 60.4209 551.706C60.4209 552.098 60.3556 552.481 60.2249 552.854C60.1036 553.227 59.9123 553.61 59.6509 554.002C59.3989 554.385 59.0676 554.791 58.6569 555.22L55.8289 558.188V557.782H60.2809C60.4863 557.782 60.6449 557.833 60.7569 557.936C60.8689 558.039 60.9249 558.188 60.9249 558.384C60.9249 558.58 60.8689 558.734 60.7569 558.846C60.6449 558.949 60.4863 559 60.2809 559H55.0449ZM65.8055 559.126C64.6575 559.126 63.7801 558.692 63.1735 557.824C62.5761 556.947 62.2775 555.691 62.2775 554.058C62.2775 552.947 62.4128 552.019 62.6835 551.272C62.9541 550.525 63.3508 549.961 63.8735 549.578C64.3961 549.195 65.0401 549.004 65.8055 549.004C66.9628 549.004 67.8401 549.433 68.4375 550.292C69.0348 551.141 69.3335 552.392 69.3335 554.044C69.3335 555.136 69.1981 556.06 68.9275 556.816C68.6568 557.572 68.2601 558.146 67.7375 558.538C67.2148 558.93 66.5708 559.126 65.8055 559.126ZM65.8055 557.922C66.5241 557.922 67.0515 557.609 67.3875 556.984C67.7328 556.349 67.9055 555.369 67.9055 554.044C67.9055 552.709 67.7328 551.739 67.3875 551.132C67.0515 550.516 66.5241 550.208 65.8055 550.208C65.0961 550.208 64.5688 550.516 64.2235 551.132C63.8781 551.739 63.7055 552.709 63.7055 554.044C63.7055 555.369 63.8781 556.349 64.2235 556.984C64.5688 557.609 65.0961 557.922 65.8055 557.922ZM71.834 559C71.582 559 71.4 558.944 71.288 558.832C71.176 558.711 71.12 558.547 71.12 558.342C71.12 558.211 71.1527 558.085 71.218 557.964C71.2833 557.843 71.3767 557.717 71.498 557.586L74.48 554.394C74.9373 553.909 75.264 553.465 75.46 553.064C75.6653 552.653 75.768 552.243 75.768 551.832C75.768 551.309 75.6093 550.913 75.292 550.642C74.9747 550.371 74.508 550.236 73.892 550.236C73.5187 550.236 73.1593 550.292 72.814 550.404C72.4687 550.516 72.1233 550.698 71.778 550.95C71.638 551.043 71.5073 551.085 71.386 551.076C71.2647 551.067 71.1573 551.02 71.064 550.936C70.98 550.852 70.924 550.749 70.896 550.628C70.868 550.507 70.8727 550.381 70.91 550.25C70.9473 550.119 71.036 550.007 71.176 549.914C71.5587 549.625 72.002 549.401 72.506 549.242C73.01 549.083 73.5233 549.004 74.046 549.004C74.7273 549.004 75.3013 549.111 75.768 549.326C76.244 549.531 76.6033 549.835 76.846 550.236C77.0887 550.637 77.21 551.127 77.21 551.706C77.21 552.098 77.1447 552.481 77.014 552.854C76.8927 553.227 76.7013 553.61 76.44 554.002C76.188 554.385 75.8567 554.791 75.446 555.22L72.618 558.188V557.782H77.07C77.2753 557.782 77.434 557.833 77.546 557.936C77.658 558.039 77.714 558.188 77.714 558.384C77.714 558.58 77.658 558.734 77.546 558.846C77.434 558.949 77.2753 559 77.07 559H71.834ZM82.5945 559.126C81.4465 559.126 80.5692 558.692 79.9625 557.824C79.3652 556.947 79.0665 555.691 79.0665 554.058C79.0665 552.947 79.2019 552.019 79.4725 551.272C79.7432 550.525 80.1399 549.961 80.6625 549.578C81.1852 549.195 81.8292 549.004 82.5945 549.004C83.7519 549.004 84.6292 549.433 85.2265 550.292C85.8239 551.141 86.1225 552.392 86.1225 554.044C86.1225 555.136 85.9872 556.06 85.7165 556.816C85.4459 557.572 85.0492 558.146 84.5265 558.538C84.0039 558.93 83.3599 559.126 82.5945 559.126ZM82.5945 557.922C83.3132 557.922 83.8405 557.609 84.1765 556.984C84.5219 556.349 84.6945 555.369 84.6945 554.044C84.6945 552.709 84.5219 551.739 84.1765 551.132C83.8405 550.516 83.3132 550.208 82.5945 550.208C81.8852 550.208 81.3579 550.516 81.0125 551.132C80.6672 551.739 80.4945 552.709 80.4945 554.044C80.4945 555.369 80.6672 556.349 81.0125 556.984C81.3579 557.609 81.8852 557.922 82.5945 557.922Z" fill="#8B8B8B"/>
<path d="M151.045 559C150.793 559 150.611 558.944 150.499 558.832C150.387 558.711 150.331 558.547 150.331 558.342C150.331 558.211 150.364 558.085 150.429 557.964C150.494 557.843 150.588 557.717 150.709 557.586L153.691 554.394C154.148 553.909 154.475 553.465 154.671 553.064C154.876 552.653 154.979 552.243 154.979 551.832C154.979 551.309 154.82 550.913 154.503 550.642C154.186 550.371 153.719 550.236 153.103 550.236C152.73 550.236 152.37 550.292 152.025 550.404C151.68 550.516 151.334 550.698 150.989 550.95C150.849 551.043 150.718 551.085 150.597 551.076C150.476 551.067 150.368 551.02 150.275 550.936C150.191 550.852 150.135 550.749 150.107 550.628C150.079 550.507 150.084 550.381 150.121 550.25C150.158 550.119 150.247 550.007 150.387 549.914C150.77 549.625 151.213 549.401 151.717 549.242C152.221 549.083 152.734 549.004 153.257 549.004C153.938 549.004 154.512 549.111 154.979 549.326C155.455 549.531 155.814 549.835 156.057 550.236C156.3 550.637 156.421 551.127 156.421 551.706C156.421 552.098 156.356 552.481 156.225 552.854C156.104 553.227 155.912 553.61 155.651 554.002C155.399 554.385 155.068 554.791 154.657 555.22L151.829 558.188V557.782H156.281C156.486 557.782 156.645 557.833 156.757 557.936C156.869 558.039 156.925 558.188 156.925 558.384C156.925 558.58 156.869 558.734 156.757 558.846C156.645 558.949 156.486 559 156.281 559H151.045ZM161.805 559.126C160.657 559.126 159.78 558.692 159.173 557.824C158.576 556.947 158.277 555.691 158.277 554.058C158.277 552.947 158.413 552.019 158.683 551.272C158.954 550.525 159.351 549.961 159.873 549.578C160.396 549.195 161.04 549.004 161.805 549.004C162.963 549.004 163.84 549.433 164.437 550.292C165.035 551.141 165.333 552.392 165.333 554.044C165.333 555.136 165.198 556.06 164.927 556.816C164.657 557.572 164.26 558.146 163.737 558.538C163.215 558.93 162.571 559.126 161.805 559.126ZM161.805 557.922C162.524 557.922 163.051 557.609 163.387 556.984C163.733 556.349 163.905 555.369 163.905 554.044C163.905 552.709 163.733 551.739 163.387 551.132C163.051 550.516 162.524 550.208 161.805 550.208C161.096 550.208 160.569 550.516 160.223 551.132C159.878 551.739 159.705 552.709 159.705 554.044C159.705 555.369 159.878 556.349 160.223 556.984C160.569 557.609 161.096 557.922 161.805 557.922ZM167.834 559C167.582 559 167.4 558.944 167.288 558.832C167.176 558.711 167.12 558.547 167.12 558.342C167.12 558.211 167.153 558.085 167.218 557.964C167.283 557.843 167.377 557.717 167.498 557.586L170.48 554.394C170.937 553.909 171.264 553.465 171.46 553.064C171.665 552.653 171.768 552.243 171.768 551.832C171.768 551.309 171.609 550.913 171.292 550.642C170.975 550.371 170.508 550.236 169.892 550.236C169.519 550.236 169.159 550.292 168.814 550.404C168.469 550.516 168.123 550.698 167.778 550.95C167.638 551.043 167.507 551.085 167.386 551.076C167.265 551.067 167.157 551.02 167.064 550.936C166.98 550.852 166.924 550.749 166.896 550.628C166.868 550.507 166.873 550.381 166.91 550.25C166.947 550.119 167.036 550.007 167.176 549.914C167.559 549.625 168.002 549.401 168.506 549.242C169.01 549.083 169.523 549.004 170.046 549.004C170.727 549.004 171.301 549.111 171.768 549.326C172.244 549.531 172.603 549.835 172.846 550.236C173.089 550.637 173.21 551.127 173.21 551.706C173.21 552.098 173.145 552.481 173.014 552.854C172.893 553.227 172.701 553.61 172.44 554.002C172.188 554.385 171.857 554.791 171.446 555.22L168.618 558.188V557.782H173.07C173.275 557.782 173.434 557.833 173.546 557.936C173.658 558.039 173.714 558.188 173.714 558.384C173.714 558.58 173.658 558.734 173.546 558.846C173.434 558.949 173.275 559 173.07 559H167.834ZM176.565 559C176.369 559 176.215 558.944 176.103 558.832C175.991 558.72 175.935 558.571 175.935 558.384C175.935 558.188 175.991 558.039 176.103 557.936C176.215 557.833 176.369 557.782 176.565 557.782H178.273V550.334H179.001L176.957 551.636C176.807 551.72 176.667 551.753 176.537 551.734C176.415 551.715 176.308 551.664 176.215 551.58C176.131 551.496 176.07 551.393 176.033 551.272C176.005 551.151 176.014 551.025 176.061 550.894C176.117 550.763 176.215 550.656 176.355 550.572L178.287 549.354C178.445 549.261 178.595 549.186 178.735 549.13C178.884 549.065 179.024 549.032 179.155 549.032C179.313 549.032 179.444 549.079 179.547 549.172C179.659 549.256 179.715 549.401 179.715 549.606V557.782H181.283C181.488 557.782 181.647 557.833 181.759 557.936C181.871 558.039 181.927 558.188 181.927 558.384C181.927 558.58 181.871 558.734 181.759 558.846C181.647 558.949 181.488 559 181.283 559H176.565Z" fill="#8B8B8B"/>
<path d="M247.045 559C246.793 559 246.611 558.944 246.499 558.832C246.387 558.711 246.331 558.547 246.331 558.342C246.331 558.211 246.364 558.085 246.429 557.964C246.494 557.843 246.588 557.717 246.709 557.586L249.691 554.394C250.148 553.909 250.475 553.465 250.671 553.064C250.876 552.653 250.979 552.243 250.979 551.832C250.979 551.309 250.82 550.913 250.503 550.642C250.186 550.371 249.719 550.236 249.103 550.236C248.73 550.236 248.37 550.292 248.025 550.404C247.68 550.516 247.334 550.698 246.989 550.95C246.849 551.043 246.718 551.085 246.597 551.076C246.476 551.067 246.368 551.02 246.275 550.936C246.191 550.852 246.135 550.749 246.107 550.628C246.079 550.507 246.084 550.381 246.121 550.25C246.158 550.119 246.247 550.007 246.387 549.914C246.77 549.625 247.213 549.401 247.717 549.242C248.221 549.083 248.734 549.004 249.257 549.004C249.938 549.004 250.512 549.111 250.979 549.326C251.455 549.531 251.814 549.835 252.057 550.236C252.3 550.637 252.421 551.127 252.421 551.706C252.421 552.098 252.356 552.481 252.225 552.854C252.104 553.227 251.912 553.61 251.651 554.002C251.399 554.385 251.068 554.791 250.657 555.22L247.829 558.188V557.782H252.281C252.486 557.782 252.645 557.833 252.757 557.936C252.869 558.039 252.925 558.188 252.925 558.384C252.925 558.58 252.869 558.734 252.757 558.846C252.645 558.949 252.486 559 252.281 559H247.045ZM257.805 559.126C256.657 559.126 255.78 558.692 255.173 557.824C254.576 556.947 254.277 555.691 254.277 554.058C254.277 552.947 254.413 552.019 254.683 551.272C254.954 550.525 255.351 549.961 255.873 549.578C256.396 549.195 257.04 549.004 257.805 549.004C258.963 549.004 259.84 549.433 260.437 550.292C261.035 551.141 261.333 552.392 261.333 554.044C261.333 555.136 261.198 556.06 260.927 556.816C260.657 557.572 260.26 558.146 259.737 558.538C259.215 558.93 258.571 559.126 257.805 559.126ZM257.805 557.922C258.524 557.922 259.051 557.609 259.387 556.984C259.733 556.349 259.905 555.369 259.905 554.044C259.905 552.709 259.733 551.739 259.387 551.132C259.051 550.516 258.524 550.208 257.805 550.208C257.096 550.208 256.569 550.516 256.223 551.132C255.878 551.739 255.705 552.709 255.705 554.044C255.705 555.369 255.878 556.349 256.223 556.984C256.569 557.609 257.096 557.922 257.805 557.922ZM263.834 559C263.582 559 263.4 558.944 263.288 558.832C263.176 558.711 263.12 558.547 263.12 558.342C263.12 558.211 263.153 558.085 263.218 557.964C263.283 557.843 263.377 557.717 263.498 557.586L266.48 554.394C266.937 553.909 267.264 553.465 267.46 553.064C267.665 552.653 267.768 552.243 267.768 551.832C267.768 551.309 267.609 550.913 267.292 550.642C266.975 550.371 266.508 550.236 265.892 550.236C265.519 550.236 265.159 550.292 264.814 550.404C264.469 550.516 264.123 550.698 263.778 550.95C263.638 551.043 263.507 551.085 263.386 551.076C263.265 551.067 263.157 551.02 263.064 550.936C262.98 550.852 262.924 550.749 262.896 550.628C262.868 550.507 262.873 550.381 262.91 550.25C262.947 550.119 263.036 550.007 263.176 549.914C263.559 549.625 264.002 549.401 264.506 549.242C265.01 549.083 265.523 549.004 266.046 549.004C266.727 549.004 267.301 549.111 267.768 549.326C268.244 549.531 268.603 549.835 268.846 550.236C269.089 550.637 269.21 551.127 269.21 551.706C269.21 552.098 269.145 552.481 269.014 552.854C268.893 553.227 268.701 553.61 268.44 554.002C268.188 554.385 267.857 554.791 267.446 555.22L264.618 558.188V557.782H269.07C269.275 557.782 269.434 557.833 269.546 557.936C269.658 558.039 269.714 558.188 269.714 558.384C269.714 558.58 269.658 558.734 269.546 558.846C269.434 558.949 269.275 559 269.07 559H263.834ZM272.229 559C271.977 559 271.795 558.944 271.683 558.832C271.571 558.711 271.515 558.547 271.515 558.342C271.515 558.211 271.547 558.085 271.613 557.964C271.678 557.843 271.771 557.717 271.893 557.586L274.875 554.394C275.332 553.909 275.659 553.465 275.855 553.064C276.06 552.653 276.163 552.243 276.163 551.832C276.163 551.309 276.004 550.913 275.687 550.642C275.369 550.371 274.903 550.236 274.287 550.236C273.913 550.236 273.554 550.292 273.209 550.404C272.863 550.516 272.518 550.698 272.173 550.95C272.033 551.043 271.902 551.085 271.781 551.076C271.659 551.067 271.552 551.02 271.459 550.936C271.375 550.852 271.319 550.749 271.291 550.628C271.263 550.507 271.267 550.381 271.305 550.25C271.342 550.119 271.431 550.007 271.571 549.914C271.953 549.625 272.397 549.401 272.901 549.242C273.405 549.083 273.918 549.004 274.441 549.004C275.122 549.004 275.696 549.111 276.163 549.326C276.639 549.531 276.998 549.835 277.241 550.236C277.483 550.637 277.605 551.127 277.605 551.706C277.605 552.098 277.539 552.481 277.409 552.854C277.287 553.227 277.096 553.61 276.835 554.002C276.583 554.385 276.251 554.791 275.841 555.22L273.013 558.188V557.782H277.465C277.67 557.782 277.829 557.833 277.941 557.936C278.053 558.039 278.109 558.188 278.109 558.384C278.109 558.58 278.053 558.734 277.941 558.846C277.829 558.949 277.67 559 277.465 559H272.229Z" fill="#8B8B8B"/>
<path d="M343.045 559C342.793 559 342.611 558.944 342.499 558.832C342.387 558.711 342.331 558.547 342.331 558.342C342.331 558.211 342.364 558.085 342.429 557.964C342.494 557.843 342.588 557.717 342.709 557.586L345.691 554.394C346.148 553.909 346.475 553.465 346.671 553.064C346.876 552.653 346.979 552.243 346.979 551.832C346.979 551.309 346.82 550.913 346.503 550.642C346.186 550.371 345.719 550.236 345.103 550.236C344.73 550.236 344.37 550.292 344.025 550.404C343.68 550.516 343.334 550.698 342.989 550.95C342.849 551.043 342.718 551.085 342.597 551.076C342.476 551.067 342.368 551.02 342.275 550.936C342.191 550.852 342.135 550.749 342.107 550.628C342.079 550.507 342.084 550.381 342.121 550.25C342.158 550.119 342.247 550.007 342.387 549.914C342.77 549.625 343.213 549.401 343.717 549.242C344.221 549.083 344.734 549.004 345.257 549.004C345.938 549.004 346.512 549.111 346.979 549.326C347.455 549.531 347.814 549.835 348.057 550.236C348.3 550.637 348.421 551.127 348.421 551.706C348.421 552.098 348.356 552.481 348.225 552.854C348.104 553.227 347.912 553.61 347.651 554.002C347.399 554.385 347.068 554.791 346.657 555.22L343.829 558.188V557.782H348.281C348.486 557.782 348.645 557.833 348.757 557.936C348.869 558.039 348.925 558.188 348.925 558.384C348.925 558.58 348.869 558.734 348.757 558.846C348.645 558.949 348.486 559 348.281 559H343.045ZM353.805 559.126C352.657 559.126 351.78 558.692 351.173 557.824C350.576 556.947 350.277 555.691 350.277 554.058C350.277 552.947 350.413 552.019 350.683 551.272C350.954 550.525 351.351 549.961 351.873 549.578C352.396 549.195 353.04 549.004 353.805 549.004C354.963 549.004 355.84 549.433 356.437 550.292C357.035 551.141 357.333 552.392 357.333 554.044C357.333 555.136 357.198 556.06 356.927 556.816C356.657 557.572 356.26 558.146 355.737 558.538C355.215 558.93 354.571 559.126 353.805 559.126ZM353.805 557.922C354.524 557.922 355.051 557.609 355.387 556.984C355.733 556.349 355.905 555.369 355.905 554.044C355.905 552.709 355.733 551.739 355.387 551.132C355.051 550.516 354.524 550.208 353.805 550.208C353.096 550.208 352.569 550.516 352.223 551.132C351.878 551.739 351.705 552.709 351.705 554.044C351.705 555.369 351.878 556.349 352.223 556.984C352.569 557.609 353.096 557.922 353.805 557.922ZM359.834 559C359.582 559 359.4 558.944 359.288 558.832C359.176 558.711 359.12 558.547 359.12 558.342C359.12 558.211 359.153 558.085 359.218 557.964C359.283 557.843 359.377 557.717 359.498 557.586L362.48 554.394C362.937 553.909 363.264 553.465 363.46 553.064C363.665 552.653 363.768 552.243 363.768 551.832C363.768 551.309 363.609 550.913 363.292 550.642C362.975 550.371 362.508 550.236 361.892 550.236C361.519 550.236 361.159 550.292 360.814 550.404C360.469 550.516 360.123 550.698 359.778 550.95C359.638 551.043 359.507 551.085 359.386 551.076C359.265 551.067 359.157 551.02 359.064 550.936C358.98 550.852 358.924 550.749 358.896 550.628C358.868 550.507 358.873 550.381 358.91 550.25C358.947 550.119 359.036 550.007 359.176 549.914C359.559 549.625 360.002 549.401 360.506 549.242C361.01 549.083 361.523 549.004 362.046 549.004C362.727 549.004 363.301 549.111 363.768 549.326C364.244 549.531 364.603 549.835 364.846 550.236C365.089 550.637 365.21 551.127 365.21 551.706C365.21 552.098 365.145 552.481 365.014 552.854C364.893 553.227 364.701 553.61 364.44 554.002C364.188 554.385 363.857 554.791 363.446 555.22L360.618 558.188V557.782H365.07C365.275 557.782 365.434 557.833 365.546 557.936C365.658 558.039 365.714 558.188 365.714 558.384C365.714 558.58 365.658 558.734 365.546 558.846C365.434 558.949 365.275 559 365.07 559H359.834ZM370.441 559.126C369.918 559.126 369.386 559.056 368.845 558.916C368.303 558.767 367.832 558.547 367.431 558.258C367.281 558.165 367.179 558.053 367.123 557.922C367.076 557.782 367.067 557.656 367.095 557.544C367.123 557.423 367.179 557.32 367.263 557.236C367.356 557.152 367.468 557.105 367.599 557.096C367.729 557.077 367.874 557.115 368.033 557.208C368.434 557.451 368.826 557.628 369.209 557.74C369.591 557.843 369.988 557.894 370.399 557.894C370.847 557.894 371.225 557.829 371.533 557.698C371.841 557.567 372.069 557.376 372.219 557.124C372.377 556.872 372.457 556.569 372.457 556.214C372.457 555.682 372.279 555.285 371.925 555.024C371.579 554.753 371.075 554.618 370.413 554.618H369.461C369.246 554.618 369.083 554.567 368.971 554.464C368.859 554.352 368.803 554.198 368.803 554.002C368.803 553.815 368.859 553.671 368.971 553.568C369.083 553.456 369.246 553.4 369.461 553.4H370.273C370.674 553.4 371.015 553.335 371.295 553.204C371.575 553.064 371.789 552.873 371.939 552.63C372.097 552.378 372.177 552.075 372.177 551.72C372.177 551.244 372.018 550.88 371.701 550.628C371.393 550.367 370.94 550.236 370.343 550.236C369.96 550.236 369.596 550.287 369.251 550.39C368.915 550.493 368.565 550.675 368.201 550.936C368.061 551.029 367.925 551.071 367.795 551.062C367.673 551.043 367.566 550.997 367.473 550.922C367.389 550.838 367.328 550.735 367.291 550.614C367.263 550.493 367.272 550.367 367.319 550.236C367.365 550.105 367.459 549.993 367.599 549.9C367.991 549.611 368.434 549.391 368.929 549.242C369.423 549.083 369.932 549.004 370.455 549.004C371.108 549.004 371.668 549.107 372.135 549.312C372.611 549.517 372.97 549.811 373.213 550.194C373.465 550.577 373.591 551.034 373.591 551.566C373.591 551.967 373.516 552.331 373.367 552.658C373.217 552.985 373.003 553.265 372.723 553.498C372.452 553.722 372.121 553.881 371.729 553.974V553.82C372.41 553.932 372.937 554.212 373.311 554.66C373.684 555.099 373.871 555.649 373.871 556.312C373.871 556.891 373.731 557.395 373.451 557.824C373.18 558.244 372.788 558.566 372.275 558.79C371.761 559.014 371.15 559.126 370.441 559.126Z" fill="#8B8B8B"/>
<path d="M439.045 559C438.793 559 438.611 558.944 438.499 558.832C438.387 558.711 438.331 558.547 438.331 558.342C438.331 558.211 438.364 558.085 438.429 557.964C438.494 557.843 438.588 557.717 438.709 557.586L441.691 554.394C442.148 553.909 442.475 553.465 442.671 553.064C442.876 552.653 442.979 552.243 442.979 551.832C442.979 551.309 442.82 550.913 442.503 550.642C442.186 550.371 441.719 550.236 441.103 550.236C440.73 550.236 440.37 550.292 440.025 550.404C439.68 550.516 439.334 550.698 438.989 550.95C438.849 551.043 438.718 551.085 438.597 551.076C438.476 551.067 438.368 551.02 438.275 550.936C438.191 550.852 438.135 550.749 438.107 550.628C438.079 550.507 438.084 550.381 438.121 550.25C438.158 550.119 438.247 550.007 438.387 549.914C438.77 549.625 439.213 549.401 439.717 549.242C440.221 549.083 440.734 549.004 441.257 549.004C441.938 549.004 442.512 549.111 442.979 549.326C443.455 549.531 443.814 549.835 444.057 550.236C444.3 550.637 444.421 551.127 444.421 551.706C444.421 552.098 444.356 552.481 444.225 552.854C444.104 553.227 443.912 553.61 443.651 554.002C443.399 554.385 443.068 554.791 442.657 555.22L439.829 558.188V557.782H444.281C444.486 557.782 444.645 557.833 444.757 557.936C444.869 558.039 444.925 558.188 444.925 558.384C444.925 558.58 444.869 558.734 444.757 558.846C444.645 558.949 444.486 559 444.281 559H439.045ZM449.805 559.126C448.657 559.126 447.78 558.692 447.173 557.824C446.576 556.947 446.277 555.691 446.277 554.058C446.277 552.947 446.413 552.019 446.683 551.272C446.954 550.525 447.351 549.961 447.873 549.578C448.396 549.195 449.04 549.004 449.805 549.004C450.963 549.004 451.84 549.433 452.437 550.292C453.035 551.141 453.333 552.392 453.333 554.044C453.333 555.136 453.198 556.06 452.927 556.816C452.657 557.572 452.26 558.146 451.737 558.538C451.215 558.93 450.571 559.126 449.805 559.126ZM449.805 557.922C450.524 557.922 451.051 557.609 451.387 556.984C451.733 556.349 451.905 555.369 451.905 554.044C451.905 552.709 451.733 551.739 451.387 551.132C451.051 550.516 450.524 550.208 449.805 550.208C449.096 550.208 448.569 550.516 448.223 551.132C447.878 551.739 447.705 552.709 447.705 554.044C447.705 555.369 447.878 556.349 448.223 556.984C448.569 557.609 449.096 557.922 449.805 557.922ZM455.834 559C455.582 559 455.4 558.944 455.288 558.832C455.176 558.711 455.12 558.547 455.12 558.342C455.12 558.211 455.153 558.085 455.218 557.964C455.283 557.843 455.377 557.717 455.498 557.586L458.48 554.394C458.937 553.909 459.264 553.465 459.46 553.064C459.665 552.653 459.768 552.243 459.768 551.832C459.768 551.309 459.609 550.913 459.292 550.642C458.975 550.371 458.508 550.236 457.892 550.236C457.519 550.236 457.159 550.292 456.814 550.404C456.469 550.516 456.123 550.698 455.778 550.95C455.638 551.043 455.507 551.085 455.386 551.076C455.265 551.067 455.157 551.02 455.064 550.936C454.98 550.852 454.924 550.749 454.896 550.628C454.868 550.507 454.873 550.381 454.91 550.25C454.947 550.119 455.036 550.007 455.176 549.914C455.559 549.625 456.002 549.401 456.506 549.242C457.01 549.083 457.523 549.004 458.046 549.004C458.727 549.004 459.301 549.111 459.768 549.326C460.244 549.531 460.603 549.835 460.846 550.236C461.089 550.637 461.21 551.127 461.21 551.706C461.21 552.098 461.145 552.481 461.014 552.854C460.893 553.227 460.701 553.61 460.44 554.002C460.188 554.385 459.857 554.791 459.446 555.22L456.618 558.188V557.782H461.07C461.275 557.782 461.434 557.833 461.546 557.936C461.658 558.039 461.714 558.188 461.714 558.384C461.714 558.58 461.658 558.734 461.546 558.846C461.434 558.949 461.275 559 461.07 559H455.834ZM468.219 559.098C467.995 559.098 467.817 559.037 467.687 558.916C467.556 558.785 467.491 558.608 467.491 558.384V556.998H463.739C463.505 556.998 463.319 556.947 463.179 556.844C463.039 556.741 462.969 556.583 462.969 556.368C462.969 556.247 462.997 556.116 463.053 555.976C463.118 555.836 463.23 555.654 463.389 555.43L467.463 549.508C467.565 549.349 467.682 549.233 467.813 549.158C467.943 549.074 468.093 549.032 468.261 549.032C468.457 549.032 468.615 549.093 468.737 549.214C468.867 549.326 468.933 549.503 468.933 549.746V555.78H469.815C470.039 555.78 470.202 555.831 470.305 555.934C470.417 556.037 470.473 556.186 470.473 556.382C470.473 556.587 470.417 556.741 470.305 556.844C470.202 556.947 470.039 556.998 469.815 556.998H468.933V558.384C468.933 558.608 468.867 558.785 468.737 558.916C468.615 559.037 468.443 559.098 468.219 559.098ZM467.491 555.78V550.838H467.869L464.215 556.172V555.78H467.491Z" fill="#8B8B8B"/>
<path d="M535.045 559C534.793 559 534.611 558.944 534.499 558.832C534.387 558.711 534.331 558.547 534.331 558.342C534.331 558.211 534.364 558.085 534.429 557.964C534.494 557.843 534.588 557.717 534.709 557.586L537.691 554.394C538.148 553.909 538.475 553.465 538.671 553.064C538.876 552.653 538.979 552.243 538.979 551.832C538.979 551.309 538.82 550.913 538.503 550.642C538.186 550.371 537.719 550.236 537.103 550.236C536.73 550.236 536.37 550.292 536.025 550.404C535.68 550.516 535.334 550.698 534.989 550.95C534.849 551.043 534.718 551.085 534.597 551.076C534.476 551.067 534.368 551.02 534.275 550.936C534.191 550.852 534.135 550.749 534.107 550.628C534.079 550.507 534.084 550.381 534.121 550.25C534.158 550.119 534.247 550.007 534.387 549.914C534.77 549.625 535.213 549.401 535.717 549.242C536.221 549.083 536.734 549.004 537.257 549.004C537.938 549.004 538.512 549.111 538.979 549.326C539.455 549.531 539.814 549.835 540.057 550.236C540.3 550.637 540.421 551.127 540.421 551.706C540.421 552.098 540.356 552.481 540.225 552.854C540.104 553.227 539.912 553.61 539.651 554.002C539.399 554.385 539.068 554.791 538.657 555.22L535.829 558.188V557.782H540.281C540.486 557.782 540.645 557.833 540.757 557.936C540.869 558.039 540.925 558.188 540.925 558.384C540.925 558.58 540.869 558.734 540.757 558.846C540.645 558.949 540.486 559 540.281 559H535.045ZM545.805 559.126C544.657 559.126 543.78 558.692 543.173 557.824C542.576 556.947 542.277 555.691 542.277 554.058C542.277 552.947 542.413 552.019 542.683 551.272C542.954 550.525 543.351 549.961 543.873 549.578C544.396 549.195 545.04 549.004 545.805 549.004C546.963 549.004 547.84 549.433 548.437 550.292C549.035 551.141 549.333 552.392 549.333 554.044C549.333 555.136 549.198 556.06 548.927 556.816C548.657 557.572 548.26 558.146 547.737 558.538C547.215 558.93 546.571 559.126 545.805 559.126ZM545.805 557.922C546.524 557.922 547.051 557.609 547.387 556.984C547.733 556.349 547.905 555.369 547.905 554.044C547.905 552.709 547.733 551.739 547.387 551.132C547.051 550.516 546.524 550.208 545.805 550.208C545.096 550.208 544.569 550.516 544.223 551.132C543.878 551.739 543.705 552.709 543.705 554.044C543.705 555.369 543.878 556.349 544.223 556.984C544.569 557.609 545.096 557.922 545.805 557.922ZM551.834 559C551.582 559 551.4 558.944 551.288 558.832C551.176 558.711 551.12 558.547 551.12 558.342C551.12 558.211 551.153 558.085 551.218 557.964C551.283 557.843 551.377 557.717 551.498 557.586L554.48 554.394C554.937 553.909 555.264 553.465 555.46 553.064C555.665 552.653 555.768 552.243 555.768 551.832C555.768 551.309 555.609 550.913 555.292 550.642C554.975 550.371 554.508 550.236 553.892 550.236C553.519 550.236 553.159 550.292 552.814 550.404C552.469 550.516 552.123 550.698 551.778 550.95C551.638 551.043 551.507 551.085 551.386 551.076C551.265 551.067 551.157 551.02 551.064 550.936C550.98 550.852 550.924 550.749 550.896 550.628C550.868 550.507 550.873 550.381 550.91 550.25C550.947 550.119 551.036 550.007 551.176 549.914C551.559 549.625 552.002 549.401 552.506 549.242C553.01 549.083 553.523 549.004 554.046 549.004C554.727 549.004 555.301 549.111 555.768 549.326C556.244 549.531 556.603 549.835 556.846 550.236C557.089 550.637 557.21 551.127 557.21 551.706C557.21 552.098 557.145 552.481 557.014 552.854C556.893 553.227 556.701 553.61 556.44 554.002C556.188 554.385 555.857 554.791 555.446 555.22L552.618 558.188V557.782H557.07C557.275 557.782 557.434 557.833 557.546 557.936C557.658 558.039 557.714 558.188 557.714 558.384C557.714 558.58 557.658 558.734 557.546 558.846C557.434 558.949 557.275 559 557.07 559H551.834ZM562.749 559.126C562.235 559.126 561.717 559.056 561.195 558.916C560.672 558.767 560.196 558.538 559.767 558.23C559.627 558.146 559.533 558.039 559.487 557.908C559.44 557.777 559.431 557.651 559.459 557.53C559.487 557.399 559.543 557.292 559.627 557.208C559.72 557.124 559.832 557.077 559.963 557.068C560.093 557.049 560.233 557.087 560.383 557.18C560.747 557.413 561.12 557.591 561.503 557.712C561.895 557.833 562.301 557.894 562.721 557.894C563.15 557.894 563.519 557.815 563.827 557.656C564.135 557.497 564.368 557.278 564.527 556.998C564.695 556.709 564.779 556.373 564.779 555.99C564.779 555.402 564.606 554.921 564.261 554.548C563.915 554.175 563.435 553.988 562.819 553.988C562.464 553.988 562.133 554.053 561.825 554.184C561.517 554.305 561.223 554.511 560.943 554.8C560.877 554.875 560.789 554.945 560.677 555.01C560.574 555.066 560.457 555.094 560.327 555.094C560.131 555.094 559.981 555.043 559.879 554.94C559.776 554.837 559.725 554.697 559.725 554.52V549.774C559.725 549.569 559.781 549.41 559.893 549.298C560.005 549.186 560.163 549.13 560.369 549.13H565.059C565.264 549.13 565.423 549.181 565.535 549.284C565.647 549.387 565.703 549.536 565.703 549.732C565.703 549.928 565.647 550.082 565.535 550.194C565.423 550.297 565.264 550.348 565.059 550.348H561.139V553.904H560.747C560.999 553.549 561.33 553.274 561.741 553.078C562.161 552.882 562.623 552.784 563.127 552.784C563.752 552.784 564.293 552.915 564.751 553.176C565.208 553.437 565.563 553.806 565.815 554.282C566.067 554.749 566.193 555.295 566.193 555.92C566.193 556.555 566.053 557.115 565.773 557.6C565.493 558.076 565.096 558.449 564.583 558.72C564.069 558.991 563.458 559.126 562.749 559.126Z" fill="#8B8B8B"/>
<path d="M631.045 559C630.793 559 630.611 558.944 630.499 558.832C630.387 558.711 630.331 558.547 630.331 558.342C630.331 558.211 630.364 558.085 630.429 557.964C630.494 557.843 630.588 557.717 630.709 557.586L633.691 554.394C634.148 553.909 634.475 553.465 634.671 553.064C634.876 552.653 634.979 552.243 634.979 551.832C634.979 551.309 634.82 550.913 634.503 550.642C634.186 550.371 633.719 550.236 633.103 550.236C632.73 550.236 632.37 550.292 632.025 550.404C631.68 550.516 631.334 550.698 630.989 550.95C630.849 551.043 630.718 551.085 630.597 551.076C630.476 551.067 630.368 551.02 630.275 550.936C630.191 550.852 630.135 550.749 630.107 550.628C630.079 550.507 630.084 550.381 630.121 550.25C630.158 550.119 630.247 550.007 630.387 549.914C630.77 549.625 631.213 549.401 631.717 549.242C632.221 549.083 632.734 549.004 633.257 549.004C633.938 549.004 634.512 549.111 634.979 549.326C635.455 549.531 635.814 549.835 636.057 550.236C636.3 550.637 636.421 551.127 636.421 551.706C636.421 552.098 636.356 552.481 636.225 552.854C636.104 553.227 635.912 553.61 635.651 554.002C635.399 554.385 635.068 554.791 634.657 555.22L631.829 558.188V557.782H636.281C636.486 557.782 636.645 557.833 636.757 557.936C636.869 558.039 636.925 558.188 636.925 558.384C636.925 558.58 636.869 558.734 636.757 558.846C636.645 558.949 636.486 559 636.281 559H631.045ZM641.805 559.126C640.657 559.126 639.78 558.692 639.173 557.824C638.576 556.947 638.277 555.691 638.277 554.058C638.277 552.947 638.413 552.019 638.683 551.272C638.954 550.525 639.351 549.961 639.873 549.578C640.396 549.195 641.04 549.004 641.805 549.004C642.963 549.004 643.84 549.433 644.437 550.292C645.035 551.141 645.333 552.392 645.333 554.044C645.333 555.136 645.198 556.06 644.927 556.816C644.657 557.572 644.26 558.146 643.737 558.538C643.215 558.93 642.571 559.126 641.805 559.126ZM641.805 557.922C642.524 557.922 643.051 557.609 643.387 556.984C643.733 556.349 643.905 555.369 643.905 554.044C643.905 552.709 643.733 551.739 643.387 551.132C643.051 550.516 642.524 550.208 641.805 550.208C641.096 550.208 640.569 550.516 640.223 551.132C639.878 551.739 639.705 552.709 639.705 554.044C639.705 555.369 639.878 556.349 640.223 556.984C640.569 557.609 641.096 557.922 641.805 557.922ZM647.834 559C647.582 559 647.4 558.944 647.288 558.832C647.176 558.711 647.12 558.547 647.12 558.342C647.12 558.211 647.153 558.085 647.218 557.964C647.283 557.843 647.377 557.717 647.498 557.586L650.48 554.394C650.937 553.909 651.264 553.465 651.46 553.064C651.665 552.653 651.768 552.243 651.768 551.832C651.768 551.309 651.609 550.913 651.292 550.642C650.975 550.371 650.508 550.236 649.892 550.236C649.519 550.236 649.159 550.292 648.814 550.404C648.469 550.516 648.123 550.698 647.778 550.95C647.638 551.043 647.507 551.085 647.386 551.076C647.265 551.067 647.157 551.02 647.064 550.936C646.98 550.852 646.924 550.749 646.896 550.628C646.868 550.507 646.873 550.381 646.91 550.25C646.947 550.119 647.036 550.007 647.176 549.914C647.559 549.625 648.002 549.401 648.506 549.242C649.01 549.083 649.523 549.004 650.046 549.004C650.727 549.004 651.301 549.111 651.768 549.326C652.244 549.531 652.603 549.835 652.846 550.236C653.089 550.637 653.21 551.127 653.21 551.706C653.21 552.098 653.145 552.481 653.014 552.854C652.893 553.227 652.701 553.61 652.44 554.002C652.188 554.385 651.857 554.791 651.446 555.22L648.618 558.188V557.782H653.07C653.275 557.782 653.434 557.833 653.546 557.936C653.658 558.039 653.714 558.188 653.714 558.384C653.714 558.58 653.658 558.734 653.546 558.846C653.434 558.949 653.275 559 653.07 559H647.834ZM658.945 559.126C658.151 559.126 657.475 558.935 656.915 558.552C656.364 558.169 655.939 557.619 655.641 556.9C655.351 556.172 655.207 555.299 655.207 554.282C655.207 553.433 655.3 552.681 655.487 552.028C655.673 551.375 655.944 550.824 656.299 550.376C656.653 549.928 657.083 549.587 657.587 549.354C658.1 549.121 658.679 549.004 659.323 549.004C659.743 549.004 660.172 549.079 660.611 549.228C661.049 549.368 661.451 549.583 661.815 549.872C661.936 549.956 662.011 550.063 662.039 550.194C662.076 550.315 662.081 550.437 662.053 550.558C662.025 550.67 661.969 550.768 661.885 550.852C661.801 550.936 661.693 550.987 661.563 551.006C661.441 551.015 661.311 550.973 661.171 550.88C660.853 550.647 660.536 550.483 660.219 550.39C659.911 550.287 659.603 550.236 659.295 550.236C658.716 550.236 658.226 550.376 657.825 550.656C657.423 550.936 657.12 551.356 656.915 551.916C656.709 552.476 656.607 553.171 656.607 554.002V555.192H656.453C656.518 554.688 656.672 554.254 656.915 553.89C657.167 553.517 657.489 553.232 657.881 553.036C658.273 552.84 658.707 552.742 659.183 552.742C659.761 552.742 660.27 552.877 660.709 553.148C661.157 553.419 661.507 553.792 661.759 554.268C662.011 554.735 662.137 555.271 662.137 555.878C662.137 556.503 662.001 557.063 661.731 557.558C661.46 558.053 661.082 558.44 660.597 558.72C660.121 558.991 659.57 559.126 658.945 559.126ZM658.861 557.95C659.243 557.95 659.579 557.866 659.869 557.698C660.158 557.53 660.382 557.297 660.541 556.998C660.699 556.69 660.779 556.335 660.779 555.934C660.779 555.533 660.699 555.183 660.541 554.884C660.382 554.585 660.158 554.352 659.869 554.184C659.579 554.007 659.243 553.918 658.861 553.918C658.478 553.918 658.142 554.007 657.853 554.184C657.573 554.352 657.349 554.585 657.181 554.884C657.022 555.183 656.943 555.533 656.943 555.934C656.943 556.335 657.022 556.69 657.181 556.998C657.349 557.297 657.573 557.53 657.853 557.698C658.142 557.866 658.478 557.95 658.861 557.95Z" fill="#8B8B8B"/>
<path d="M727.045 559C726.793 559 726.611 558.944 726.499 558.832C726.387 558.711 726.331 558.547 726.331 558.342C726.331 558.211 726.364 558.085 726.429 557.964C726.494 557.843 726.588 557.717 726.709 557.586L729.691 554.394C730.148 553.909 730.475 553.465 730.671 553.064C730.876 552.653 730.979 552.243 730.979 551.832C730.979 551.309 730.82 550.913 730.503 550.642C730.186 550.371 729.719 550.236 729.103 550.236C728.73 550.236 728.37 550.292 728.025 550.404C727.68 550.516 727.334 550.698 726.989 550.95C726.849 551.043 726.718 551.085 726.597 551.076C726.476 551.067 726.368 551.02 726.275 550.936C726.191 550.852 726.135 550.749 726.107 550.628C726.079 550.507 726.084 550.381 726.121 550.25C726.158 550.119 726.247 550.007 726.387 549.914C726.77 549.625 727.213 549.401 727.717 549.242C728.221 549.083 728.734 549.004 729.257 549.004C729.938 549.004 730.512 549.111 730.979 549.326C731.455 549.531 731.814 549.835 732.057 550.236C732.3 550.637 732.421 551.127 732.421 551.706C732.421 552.098 732.356 552.481 732.225 552.854C732.104 553.227 731.912 553.61 731.651 554.002C731.399 554.385 731.068 554.791 730.657 555.22L727.829 558.188V557.782H732.281C732.486 557.782 732.645 557.833 732.757 557.936C732.869 558.039 732.925 558.188 732.925 558.384C732.925 558.58 732.869 558.734 732.757 558.846C732.645 558.949 732.486 559 732.281 559H727.045ZM737.805 559.126C736.657 559.126 735.78 558.692 735.173 557.824C734.576 556.947 734.277 555.691 734.277 554.058C734.277 552.947 734.413 552.019 734.683 551.272C734.954 550.525 735.351 549.961 735.873 549.578C736.396 549.195 737.04 549.004 737.805 549.004C738.963 549.004 739.84 549.433 740.437 550.292C741.035 551.141 741.333 552.392 741.333 554.044C741.333 555.136 741.198 556.06 740.927 556.816C740.657 557.572 740.26 558.146 739.737 558.538C739.215 558.93 738.571 559.126 737.805 559.126ZM737.805 557.922C738.524 557.922 739.051 557.609 739.387 556.984C739.733 556.349 739.905 555.369 739.905 554.044C739.905 552.709 739.733 551.739 739.387 551.132C739.051 550.516 738.524 550.208 737.805 550.208C737.096 550.208 736.569 550.516 736.223 551.132C735.878 551.739 735.705 552.709 735.705 554.044C735.705 555.369 735.878 556.349 736.223 556.984C736.569 557.609 737.096 557.922 737.805 557.922ZM743.834 559C743.582 559 743.4 558.944 743.288 558.832C743.176 558.711 743.12 558.547 743.12 558.342C743.12 558.211 743.153 558.085 743.218 557.964C743.283 557.843 743.377 557.717 743.498 557.586L746.48 554.394C746.937 553.909 747.264 553.465 747.46 553.064C747.665 552.653 747.768 552.243 747.768 551.832C747.768 551.309 747.609 550.913 747.292 550.642C746.975 550.371 746.508 550.236 745.892 550.236C745.519 550.236 745.159 550.292 744.814 550.404C744.469 550.516 744.123 550.698 743.778 550.95C743.638 551.043 743.507 551.085 743.386 551.076C743.265 551.067 743.157 551.02 743.064 550.936C742.98 550.852 742.924 550.749 742.896 550.628C742.868 550.507 742.873 550.381 742.91 550.25C742.947 550.119 743.036 550.007 743.176 549.914C743.559 549.625 744.002 549.401 744.506 549.242C745.01 549.083 745.523 549.004 746.046 549.004C746.727 549.004 747.301 549.111 747.768 549.326C748.244 549.531 748.603 549.835 748.846 550.236C749.089 550.637 749.21 551.127 749.21 551.706C749.21 552.098 749.145 552.481 749.014 552.854C748.893 553.227 748.701 553.61 748.44 554.002C748.188 554.385 747.857 554.791 747.446 555.22L744.618 558.188V557.782H749.07C749.275 557.782 749.434 557.833 749.546 557.936C749.658 558.039 749.714 558.188 749.714 558.384C749.714 558.58 749.658 558.734 749.546 558.846C749.434 558.949 749.275 559 749.07 559H743.834ZM752.775 559.098C752.607 559.098 752.462 559.061 752.341 558.986C752.229 558.902 752.159 558.79 752.131 558.65C752.112 558.501 752.145 558.337 752.229 558.16L756.611 549.802V550.348H751.795C751.589 550.348 751.431 550.297 751.319 550.194C751.207 550.082 751.151 549.933 751.151 549.746C751.151 549.55 751.207 549.401 751.319 549.298C751.431 549.186 751.589 549.13 751.795 549.13H757.297C757.502 549.13 757.665 549.186 757.787 549.298C757.917 549.401 757.983 549.55 757.983 549.746C757.983 549.914 757.959 550.059 757.913 550.18C757.875 550.301 757.819 550.437 757.745 550.586L753.587 558.622C753.503 558.79 753.395 558.911 753.265 558.986C753.134 559.061 752.971 559.098 752.775 559.098Z" fill="#8B8B8B"/>
<path d="M823.045 559C822.793 559 822.611 558.944 822.499 558.832C822.387 558.711 822.331 558.547 822.331 558.342C822.331 558.211 822.364 558.085 822.429 557.964C822.494 557.843 822.588 557.717 822.709 557.586L825.691 554.394C826.148 553.909 826.475 553.465 826.671 553.064C826.876 552.653 826.979 552.243 826.979 551.832C826.979 551.309 826.82 550.913 826.503 550.642C826.186 550.371 825.719 550.236 825.103 550.236C824.73 550.236 824.37 550.292 824.025 550.404C823.68 550.516 823.334 550.698 822.989 550.95C822.849 551.043 822.718 551.085 822.597 551.076C822.476 551.067 822.368 551.02 822.275 550.936C822.191 550.852 822.135 550.749 822.107 550.628C822.079 550.507 822.084 550.381 822.121 550.25C822.158 550.119 822.247 550.007 822.387 549.914C822.77 549.625 823.213 549.401 823.717 549.242C824.221 549.083 824.734 549.004 825.257 549.004C825.938 549.004 826.512 549.111 826.979 549.326C827.455 549.531 827.814 549.835 828.057 550.236C828.3 550.637 828.421 551.127 828.421 551.706C828.421 552.098 828.356 552.481 828.225 552.854C828.104 553.227 827.912 553.61 827.651 554.002C827.399 554.385 827.068 554.791 826.657 555.22L823.829 558.188V557.782H828.281C828.486 557.782 828.645 557.833 828.757 557.936C828.869 558.039 828.925 558.188 828.925 558.384C828.925 558.58 828.869 558.734 828.757 558.846C828.645 558.949 828.486 559 828.281 559H823.045ZM833.805 559.126C832.657 559.126 831.78 558.692 831.173 557.824C830.576 556.947 830.277 555.691 830.277 554.058C830.277 552.947 830.413 552.019 830.683 551.272C830.954 550.525 831.351 549.961 831.873 549.578C832.396 549.195 833.04 549.004 833.805 549.004C834.963 549.004 835.84 549.433 836.437 550.292C837.035 551.141 837.333 552.392 837.333 554.044C837.333 555.136 837.198 556.06 836.927 556.816C836.657 557.572 836.26 558.146 835.737 558.538C835.215 558.93 834.571 559.126 833.805 559.126ZM833.805 557.922C834.524 557.922 835.051 557.609 835.387 556.984C835.733 556.349 835.905 555.369 835.905 554.044C835.905 552.709 835.733 551.739 835.387 551.132C835.051 550.516 834.524 550.208 833.805 550.208C833.096 550.208 832.569 550.516 832.223 551.132C831.878 551.739 831.705 552.709 831.705 554.044C831.705 555.369 831.878 556.349 832.223 556.984C832.569 557.609 833.096 557.922 833.805 557.922ZM839.834 559C839.582 559 839.4 558.944 839.288 558.832C839.176 558.711 839.12 558.547 839.12 558.342C839.12 558.211 839.153 558.085 839.218 557.964C839.283 557.843 839.377 557.717 839.498 557.586L842.48 554.394C842.937 553.909 843.264 553.465 843.46 553.064C843.665 552.653 843.768 552.243 843.768 551.832C843.768 551.309 843.609 550.913 843.292 550.642C842.975 550.371 842.508 550.236 841.892 550.236C841.519 550.236 841.159 550.292 840.814 550.404C840.469 550.516 840.123 550.698 839.778 550.95C839.638 551.043 839.507 551.085 839.386 551.076C839.265 551.067 839.157 551.02 839.064 550.936C838.98 550.852 838.924 550.749 838.896 550.628C838.868 550.507 838.873 550.381 838.91 550.25C838.947 550.119 839.036 550.007 839.176 549.914C839.559 549.625 840.002 549.401 840.506 549.242C841.01 549.083 841.523 549.004 842.046 549.004C842.727 549.004 843.301 549.111 843.768 549.326C844.244 549.531 844.603 549.835 844.846 550.236C845.089 550.637 845.21 551.127 845.21 551.706C845.21 552.098 845.145 552.481 845.014 552.854C844.893 553.227 844.701 553.61 844.44 554.002C844.188 554.385 843.857 554.791 843.446 555.22L840.618 558.188V557.782H845.07C845.275 557.782 845.434 557.833 845.546 557.936C845.658 558.039 845.714 558.188 845.714 558.384C845.714 558.58 845.658 558.734 845.546 558.846C845.434 558.949 845.275 559 845.07 559H839.834ZM850.595 559.126C849.848 559.126 849.204 559.019 848.663 558.804C848.131 558.589 847.72 558.277 847.431 557.866C847.151 557.446 847.011 556.947 847.011 556.368C847.011 555.901 847.104 555.491 847.291 555.136C847.477 554.772 847.739 554.478 848.075 554.254C848.411 554.03 848.798 553.89 849.237 553.834V554.086C848.63 553.955 848.145 553.671 847.781 553.232C847.426 552.784 847.249 552.252 847.249 551.636C847.249 551.085 847.384 550.614 847.655 550.222C847.935 549.821 848.327 549.517 848.831 549.312C849.335 549.107 849.923 549.004 850.595 549.004C851.276 549.004 851.869 549.107 852.373 549.312C852.877 549.517 853.264 549.821 853.535 550.222C853.815 550.614 853.955 551.085 853.955 551.636C853.955 552.047 853.871 552.425 853.703 552.77C853.544 553.106 853.315 553.391 853.017 553.624C852.718 553.848 852.368 553.997 851.967 554.072V553.834C852.629 553.927 853.161 554.203 853.563 554.66C853.973 555.108 854.179 555.677 854.179 556.368C854.179 556.947 854.034 557.446 853.745 557.866C853.465 558.277 853.059 558.589 852.527 558.804C851.995 559.019 851.351 559.126 850.595 559.126ZM850.595 557.978C851.332 557.978 851.887 557.838 852.261 557.558C852.634 557.269 852.821 556.839 852.821 556.27C852.821 555.701 852.634 555.276 852.261 554.996C851.887 554.716 851.332 554.576 850.595 554.576C849.867 554.576 849.311 554.716 848.929 554.996C848.555 555.276 848.369 555.701 848.369 556.27C848.369 556.839 848.555 557.269 848.929 557.558C849.311 557.838 849.867 557.978 850.595 557.978ZM850.595 553.428C851.015 553.428 851.369 553.363 851.659 553.232C851.957 553.092 852.186 552.901 852.345 552.658C852.503 552.406 852.583 552.112 852.583 551.776C852.583 551.272 852.405 550.875 852.051 550.586C851.705 550.297 851.22 550.152 850.595 550.152C849.969 550.152 849.484 550.297 849.139 550.586C848.793 550.875 848.621 551.272 848.621 551.776C848.621 552.289 848.793 552.695 849.139 552.994C849.484 553.283 849.969 553.428 850.595 553.428Z" fill="#8B8B8B"/>
<path d="M919.045 559C918.793 559 918.611 558.944 918.499 558.832C918.387 558.711 918.331 558.547 918.331 558.342C918.331 558.211 918.364 558.085 918.429 557.964C918.494 557.843 918.588 557.717 918.709 557.586L921.691 554.394C922.148 553.909 922.475 553.465 922.671 553.064C922.876 552.653 922.979 552.243 922.979 551.832C922.979 551.309 922.82 550.913 922.503 550.642C922.186 550.371 921.719 550.236 921.103 550.236C920.73 550.236 920.37 550.292 920.025 550.404C919.68 550.516 919.334 550.698 918.989 550.95C918.849 551.043 918.718 551.085 918.597 551.076C918.476 551.067 918.368 551.02 918.275 550.936C918.191 550.852 918.135 550.749 918.107 550.628C918.079 550.507 918.084 550.381 918.121 550.25C918.158 550.119 918.247 550.007 918.387 549.914C918.77 549.625 919.213 549.401 919.717 549.242C920.221 549.083 920.734 549.004 921.257 549.004C921.938 549.004 922.512 549.111 922.979 549.326C923.455 549.531 923.814 549.835 924.057 550.236C924.3 550.637 924.421 551.127 924.421 551.706C924.421 552.098 924.356 552.481 924.225 552.854C924.104 553.227 923.912 553.61 923.651 554.002C923.399 554.385 923.068 554.791 922.657 555.22L919.829 558.188V557.782H924.281C924.486 557.782 924.645 557.833 924.757 557.936C924.869 558.039 924.925 558.188 924.925 558.384C924.925 558.58 924.869 558.734 924.757 558.846C924.645 558.949 924.486 559 924.281 559H919.045ZM929.805 559.126C928.657 559.126 927.78 558.692 927.173 557.824C926.576 556.947 926.277 555.691 926.277 554.058C926.277 552.947 926.413 552.019 926.683 551.272C926.954 550.525 927.351 549.961 927.873 549.578C928.396 549.195 929.04 549.004 929.805 549.004C930.963 549.004 931.84 549.433 932.437 550.292C933.035 551.141 933.333 552.392 933.333 554.044C933.333 555.136 933.198 556.06 932.927 556.816C932.657 557.572 932.26 558.146 931.737 558.538C931.215 558.93 930.571 559.126 929.805 559.126ZM929.805 557.922C930.524 557.922 931.051 557.609 931.387 556.984C931.733 556.349 931.905 555.369 931.905 554.044C931.905 552.709 931.733 551.739 931.387 551.132C931.051 550.516 930.524 550.208 929.805 550.208C929.096 550.208 928.569 550.516 928.223 551.132C927.878 551.739 927.705 552.709 927.705 554.044C927.705 555.369 927.878 556.349 928.223 556.984C928.569 557.609 929.096 557.922 929.805 557.922ZM935.834 559C935.582 559 935.4 558.944 935.288 558.832C935.176 558.711 935.12 558.547 935.12 558.342C935.12 558.211 935.153 558.085 935.218 557.964C935.283 557.843 935.377 557.717 935.498 557.586L938.48 554.394C938.937 553.909 939.264 553.465 939.46 553.064C939.665 552.653 939.768 552.243 939.768 551.832C939.768 551.309 939.609 550.913 939.292 550.642C938.975 550.371 938.508 550.236 937.892 550.236C937.519 550.236 937.159 550.292 936.814 550.404C936.469 550.516 936.123 550.698 935.778 550.95C935.638 551.043 935.507 551.085 935.386 551.076C935.265 551.067 935.157 551.02 935.064 550.936C934.98 550.852 934.924 550.749 934.896 550.628C934.868 550.507 934.873 550.381 934.91 550.25C934.947 550.119 935.036 550.007 935.176 549.914C935.559 549.625 936.002 549.401 936.506 549.242C937.01 549.083 937.523 549.004 938.046 549.004C938.727 549.004 939.301 549.111 939.768 549.326C940.244 549.531 940.603 549.835 940.846 550.236C941.089 550.637 941.21 551.127 941.21 551.706C941.21 552.098 941.145 552.481 941.014 552.854C940.893 553.227 940.701 553.61 940.44 554.002C940.188 554.385 939.857 554.791 939.446 555.22L936.618 558.188V557.782H941.07C941.275 557.782 941.434 557.833 941.546 557.936C941.658 558.039 941.714 558.188 941.714 558.384C941.714 558.58 941.658 558.734 941.546 558.846C941.434 558.949 941.275 559 941.07 559H935.834ZM945.867 559.126C945.456 559.126 945.027 559.056 944.579 558.916C944.14 558.767 943.739 558.547 943.375 558.258C943.253 558.174 943.174 558.071 943.137 557.95C943.109 557.819 943.109 557.698 943.137 557.586C943.165 557.465 943.221 557.362 943.305 557.278C943.389 557.185 943.491 557.133 943.613 557.124C943.743 557.105 943.879 557.143 944.019 557.236C944.336 557.469 944.649 557.637 944.957 557.74C945.274 557.843 945.587 557.894 945.895 557.894C946.473 557.894 946.963 557.754 947.365 557.474C947.766 557.194 948.069 556.774 948.275 556.214C948.48 555.654 948.583 554.959 948.583 554.128V552.938H948.737C948.671 553.433 948.513 553.867 948.261 554.24C948.018 554.613 947.701 554.898 947.309 555.094C946.917 555.29 946.483 555.388 946.007 555.388C945.437 555.388 944.929 555.253 944.481 554.982C944.033 554.711 943.683 554.338 943.431 553.862C943.179 553.386 943.053 552.849 943.053 552.252C943.053 551.617 943.188 551.057 943.459 550.572C943.729 550.077 944.103 549.695 944.579 549.424C945.064 549.144 945.619 549.004 946.245 549.004C947.047 549.004 947.724 549.195 948.275 549.578C948.825 549.951 949.245 550.502 949.535 551.23C949.833 551.958 949.983 552.831 949.983 553.848C949.983 554.697 949.889 555.449 949.703 556.102C949.516 556.755 949.245 557.306 948.891 557.754C948.536 558.202 948.102 558.543 947.589 558.776C947.085 559.009 946.511 559.126 945.867 559.126ZM946.343 554.198C946.716 554.198 947.047 554.114 947.337 553.946C947.626 553.778 947.85 553.54 948.009 553.232C948.177 552.924 948.261 552.574 948.261 552.182C948.261 551.781 948.177 551.431 948.009 551.132C947.85 550.824 947.626 550.586 947.337 550.418C947.047 550.25 946.716 550.166 946.343 550.166C945.96 550.166 945.624 550.25 945.335 550.418C945.055 550.586 944.831 550.824 944.663 551.132C944.504 551.431 944.425 551.781 944.425 552.182C944.425 552.574 944.504 552.924 944.663 553.232C944.831 553.54 945.055 553.778 945.335 553.946C945.624 554.114 945.96 554.198 946.343 554.198Z" fill="#8B8B8B"/>
<path d="M1015.04 559C1014.79 559 1014.61 558.944 1014.5 558.832C1014.39 558.711 1014.33 558.547 1014.33 558.342C1014.33 558.211 1014.36 558.085 1014.43 557.964C1014.49 557.843 1014.59 557.717 1014.71 557.586L1017.69 554.394C1018.15 553.909 1018.47 553.465 1018.67 553.064C1018.88 552.653 1018.98 552.243 1018.98 551.832C1018.98 551.309 1018.82 550.913 1018.5 550.642C1018.19 550.371 1017.72 550.236 1017.1 550.236C1016.73 550.236 1016.37 550.292 1016.02 550.404C1015.68 550.516 1015.33 550.698 1014.99 550.95C1014.85 551.043 1014.72 551.085 1014.6 551.076C1014.48 551.067 1014.37 551.02 1014.27 550.936C1014.19 550.852 1014.13 550.749 1014.11 550.628C1014.08 550.507 1014.08 550.381 1014.12 550.25C1014.16 550.119 1014.25 550.007 1014.39 549.914C1014.77 549.625 1015.21 549.401 1015.72 549.242C1016.22 549.083 1016.73 549.004 1017.26 549.004C1017.94 549.004 1018.51 549.111 1018.98 549.326C1019.45 549.531 1019.81 549.835 1020.06 550.236C1020.3 550.637 1020.42 551.127 1020.42 551.706C1020.42 552.098 1020.36 552.481 1020.22 552.854C1020.1 553.227 1019.91 553.61 1019.65 554.002C1019.4 554.385 1019.07 554.791 1018.66 555.22L1015.83 558.188V557.782H1020.28C1020.49 557.782 1020.64 557.833 1020.76 557.936C1020.87 558.039 1020.92 558.188 1020.92 558.384C1020.92 558.58 1020.87 558.734 1020.76 558.846C1020.64 558.949 1020.49 559 1020.28 559H1015.04ZM1025.81 559.126C1024.66 559.126 1023.78 558.692 1023.17 557.824C1022.58 556.947 1022.28 555.691 1022.28 554.058C1022.28 552.947 1022.41 552.019 1022.68 551.272C1022.95 550.525 1023.35 549.961 1023.87 549.578C1024.4 549.195 1025.04 549.004 1025.81 549.004C1026.96 549.004 1027.84 549.433 1028.44 550.292C1029.03 551.141 1029.33 552.392 1029.33 554.044C1029.33 555.136 1029.2 556.06 1028.93 556.816C1028.66 557.572 1028.26 558.146 1027.74 558.538C1027.21 558.93 1026.57 559.126 1025.81 559.126ZM1025.81 557.922C1026.52 557.922 1027.05 557.609 1027.39 556.984C1027.73 556.349 1027.91 555.369 1027.91 554.044C1027.91 552.709 1027.73 551.739 1027.39 551.132C1027.05 550.516 1026.52 550.208 1025.81 550.208C1025.1 550.208 1024.57 550.516 1024.22 551.132C1023.88 551.739 1023.71 552.709 1023.71 554.044C1023.71 555.369 1023.88 556.349 1024.22 556.984C1024.57 557.609 1025.1 557.922 1025.81 557.922ZM1034.05 559.126C1033.52 559.126 1032.99 559.056 1032.45 558.916C1031.91 558.767 1031.44 558.547 1031.04 558.258C1030.89 558.165 1030.78 558.053 1030.73 557.922C1030.68 557.782 1030.67 557.656 1030.7 557.544C1030.73 557.423 1030.78 557.32 1030.87 557.236C1030.96 557.152 1031.07 557.105 1031.2 557.096C1031.33 557.077 1031.48 557.115 1031.64 557.208C1032.04 557.451 1032.43 557.628 1032.81 557.74C1033.2 557.843 1033.59 557.894 1034 557.894C1034.45 557.894 1034.83 557.829 1035.14 557.698C1035.45 557.567 1035.67 557.376 1035.82 557.124C1035.98 556.872 1036.06 556.569 1036.06 556.214C1036.06 555.682 1035.88 555.285 1035.53 555.024C1035.18 554.753 1034.68 554.618 1034.02 554.618H1033.07C1032.85 554.618 1032.69 554.567 1032.58 554.464C1032.46 554.352 1032.41 554.198 1032.41 554.002C1032.41 553.815 1032.46 553.671 1032.58 553.568C1032.69 553.456 1032.85 553.4 1033.07 553.4H1033.88C1034.28 553.4 1034.62 553.335 1034.9 553.204C1035.18 553.064 1035.39 552.873 1035.54 552.63C1035.7 552.378 1035.78 552.075 1035.78 551.72C1035.78 551.244 1035.62 550.88 1035.31 550.628C1035 550.367 1034.55 550.236 1033.95 550.236C1033.57 550.236 1033.2 550.287 1032.86 550.39C1032.52 550.493 1032.17 550.675 1031.81 550.936C1031.67 551.029 1031.53 551.071 1031.4 551.062C1031.28 551.043 1031.17 550.997 1031.08 550.922C1030.99 550.838 1030.93 550.735 1030.9 550.614C1030.87 550.493 1030.88 550.367 1030.92 550.236C1030.97 550.105 1031.06 549.993 1031.2 549.9C1031.6 549.611 1032.04 549.391 1032.53 549.242C1033.03 549.083 1033.54 549.004 1034.06 549.004C1034.71 549.004 1035.27 549.107 1035.74 549.312C1036.22 549.517 1036.58 549.811 1036.82 550.194C1037.07 550.577 1037.2 551.034 1037.2 551.566C1037.2 551.967 1037.12 552.331 1036.97 552.658C1036.82 552.985 1036.61 553.265 1036.33 553.498C1036.06 553.722 1035.73 553.881 1035.33 553.974V553.82C1036.02 553.932 1036.54 554.212 1036.92 554.66C1037.29 555.099 1037.48 555.649 1037.48 556.312C1037.48 556.891 1037.34 557.395 1037.06 557.824C1036.79 558.244 1036.39 558.566 1035.88 558.79C1035.37 559.014 1034.76 559.126 1034.05 559.126ZM1042.59 559.126C1041.45 559.126 1040.57 558.692 1039.96 557.824C1039.37 556.947 1039.07 555.691 1039.07 554.058C1039.07 552.947 1039.2 552.019 1039.47 551.272C1039.74 550.525 1040.14 549.961 1040.66 549.578C1041.19 549.195 1041.83 549.004 1042.59 549.004C1043.75 549.004 1044.63 549.433 1045.23 550.292C1045.82 551.141 1046.12 552.392 1046.12 554.044C1046.12 555.136 1045.99 556.06 1045.72 556.816C1045.45 557.572 1045.05 558.146 1044.53 558.538C1044 558.93 1043.36 559.126 1042.59 559.126ZM1042.59 557.922C1043.31 557.922 1043.84 557.609 1044.18 556.984C1044.52 556.349 1044.69 555.369 1044.69 554.044C1044.69 552.709 1044.52 551.739 1044.18 551.132C1043.84 550.516 1043.31 550.208 1042.59 550.208C1041.89 550.208 1041.36 550.516 1041.01 551.132C1040.67 551.739 1040.49 552.709 1040.49 554.044C1040.49 555.369 1040.67 556.349 1041.01 556.984C1041.36 557.609 1041.89 557.922 1042.59 557.922Z" fill="#8B8B8B"/>
<path d="M71.072 528.044L332.78 528.045L545 458.5L648 283.5L846.5 147.499L1029.5 36.9996" stroke="url(#paint1_linear_2728_3330)" stroke-width="3" stroke-linecap="round"/>
<path d="M71.0723 528.045L332.78 528.045L546.5 495.5L651 361.5L838.5 216.5L1031 92.5" stroke="url(#paint2_linear_2728_3330)" stroke-width="3" stroke-linecap="round"/>
<path d="M71.0719 528.045L332.78 528.045L553.28 418.5L652.78 319L845.78 177.5L1030.5 66" stroke="url(#paint3_linear_2728_3330)" stroke-width="3" stroke-linecap="round"/>
</g>
<defs>
<linearGradient id="paint0_linear_2728_3330" x1="1096" y1="35" x2="1036.15" y2="55.6157" gradientUnits="userSpaceOnUse">
<stop stop-color="#077BD8"/>
<stop offset="0.345" stop-color="#077BD8"/>
<stop offset="0.67" stop-color="#414ECA"/>
<stop offset="1" stop-color="#1B94F6"/>
</linearGradient>
<linearGradient id="paint1_linear_2728_3330" x1="89.2194" y1="567.755" x2="1057.57" y2="125.226" gradientUnits="userSpaceOnUse">
<stop stop-color="white"/>
<stop offset="1" stop-color="#1B94F6"/>
</linearGradient>
<linearGradient id="paint2_linear_2728_3330" x1="89.2194" y1="567.756" x2="1057.57" y2="125.226" gradientUnits="userSpaceOnUse">
<stop stop-color="white"/>
<stop offset="1" stop-color="#1B94F6"/>
</linearGradient>
<linearGradient id="paint3_linear_2728_3330" x1="89.2194" y1="567.756" x2="1057.57" y2="125.226" gradientUnits="userSpaceOnUse">
<stop stop-color="white"/>
<stop offset="1" stop-color="#1B94F6"/>
</linearGradient>
<clipPath id="clip0_2728_3330">
<rect width="1100" height="600" rx="30" fill="white"/>
</clipPath>
</defs>
</svg>
