<svg width="455" height="148" viewBox="0 0 455 148" fill="none" xmlns="http://www.w3.org/2000/svg">
<path d="M48.9653 67V48.6682H56.1147C57.7209 48.6682 59.0914 48.9214 60.2262 49.4277C61.361 49.934 62.234 50.6673 62.845 51.6275C63.4561 52.5877 63.7616 53.7313 63.7616 55.0582C63.7616 56.385 63.4561 57.5286 62.845 58.4888C62.234 59.4316 61.361 60.1561 60.2262 60.6624C59.0914 61.1688 57.7209 61.4219 56.1147 61.4219H50.4056L51.5841 60.2172V67H48.9653ZM61.2214 67L56.5599 60.3482H59.362L64.0759 67H61.2214ZM51.5841 60.4791L50.4056 59.1959H56.0361C57.7122 59.1959 58.9779 58.838 59.8334 58.1222C60.7063 57.3889 61.1428 56.3676 61.1428 55.0582C61.1428 53.7488 60.7063 52.7361 59.8334 52.0203C58.9779 51.3045 57.7122 50.9466 56.0361 50.9466H50.4056L51.5841 49.6372V60.4791ZM70.3758 56.5771H79.8036V58.8031H70.3758V56.5771ZM70.6115 64.7216H81.2963V67H67.9927V48.6682H80.9297V50.9466H70.6115V64.7216ZM93.7081 67.2095C92.3114 67.2095 91.0194 66.9825 89.8322 66.5286C88.6625 66.0572 87.6411 65.4025 86.7682 64.5645C85.9127 63.709 85.2406 62.7139 84.7517 61.579C84.2629 60.4442 84.0184 59.1959 84.0184 57.8341C84.0184 56.4723 84.2629 55.224 84.7517 54.0892C85.2406 52.9544 85.9214 51.968 86.7944 51.1299C87.6673 50.2744 88.6887 49.6197 89.8584 49.1658C91.0456 48.6944 92.3376 48.4587 93.7343 48.4587C95.1484 48.4587 96.4491 48.7032 97.6363 49.192C98.841 49.6634 99.8623 50.3705 100.7 51.3132L98.9981 52.9631C98.2998 52.2298 97.5141 51.6886 96.6412 51.3394C95.7682 50.9728 94.8342 50.7895 93.839 50.7895C92.809 50.7895 91.8487 50.9641 90.9583 51.3132C90.0854 51.6624 89.3259 52.1513 88.6799 52.7798C88.034 53.4083 87.5277 54.159 87.161 55.032C86.8118 55.8875 86.6373 56.8215 86.6373 57.8341C86.6373 58.8467 86.8118 59.7895 87.161 60.6624C87.5277 61.5179 88.034 62.2599 88.6799 62.8884C89.3259 63.517 90.0854 64.0058 90.9583 64.355C91.8487 64.7042 92.809 64.8788 93.839 64.8788C94.8342 64.8788 95.7682 64.7042 96.6412 64.355C97.5141 63.9884 98.2998 63.4297 98.9981 62.6789L100.7 64.3288C99.8623 65.2716 98.841 65.9874 97.6363 66.4762C96.4491 66.9651 95.1397 67.2095 93.7081 67.2095ZM104.436 67V48.6682H111.586C113.192 48.6682 114.562 48.9214 115.697 49.4277C116.832 49.934 117.705 50.6673 118.316 51.6275C118.927 52.5877 119.233 53.7313 119.233 55.0582C119.233 56.385 118.927 57.5286 118.316 58.4888C117.705 59.4316 116.832 60.1561 115.697 60.6624C114.562 61.1688 113.192 61.4219 111.586 61.4219H105.877L107.055 60.2172V67H104.436ZM116.692 67L112.031 60.3482H114.833L119.547 67H116.692ZM107.055 60.4791L105.877 59.1959H111.507C113.183 59.1959 114.449 58.838 115.304 58.1222C116.177 57.3889 116.614 56.3676 116.614 55.0582C116.614 53.7488 116.177 52.7361 115.304 52.0203C114.449 51.3045 113.183 50.9466 111.507 50.9466H105.877L107.055 49.6372V60.4791ZM131.058 67.2095C128.649 67.2095 126.755 66.5199 125.375 65.1406C123.996 63.7614 123.307 61.7449 123.307 59.0912V48.6682H125.925V58.9864C125.925 61.0291 126.371 62.5218 127.261 63.4646C128.169 64.4074 129.443 64.8788 131.084 64.8788C132.743 64.8788 134.018 64.4074 134.908 63.4646C135.816 62.5218 136.27 61.0291 136.27 58.9864V48.6682H138.81V59.0912C138.81 61.7449 138.12 63.7614 136.741 65.1406C135.379 66.5199 133.485 67.2095 131.058 67.2095ZM144.179 67V48.6682H146.798V67H144.179ZM155.926 67V50.9466H149.641V48.6682H164.804V50.9466H158.519V67H155.926ZM170.039 56.5771H179.467V58.8031H170.039V56.5771ZM170.275 64.7216H180.96V67H167.656V48.6682H180.593V50.9466H170.275V64.7216ZM185.2 67V48.6682H192.35C193.956 48.6682 195.326 48.9214 196.461 49.4277C197.596 49.934 198.469 50.6673 199.08 51.6275C199.691 52.5877 199.997 53.7313 199.997 55.0582C199.997 56.385 199.691 57.5286 199.08 58.4888C198.469 59.4316 197.596 60.1561 196.461 60.6624C195.326 61.1688 193.956 61.4219 192.35 61.4219H186.641L187.819 60.2172V67H185.2ZM197.456 67L192.795 60.3482H195.597L200.311 67H197.456ZM187.819 60.4791L186.641 59.1959H192.271C193.947 59.1959 195.213 58.838 196.068 58.1222C196.941 57.3889 197.378 56.3676 197.378 55.0582C197.378 53.7488 196.941 52.7361 196.068 52.0203C195.213 51.3045 193.947 50.9466 192.271 50.9466H186.641L187.819 49.6372V60.4791ZM211.261 67V48.6682H218.41C220.016 48.6682 221.387 48.9214 222.522 49.4277C223.657 49.934 224.529 50.6673 225.141 51.6275C225.752 52.5877 226.057 53.7313 226.057 55.0582C226.057 56.385 225.752 57.5286 225.141 58.4888C224.529 59.4316 223.657 60.1561 222.522 60.6624C221.387 61.1688 220.016 61.4219 218.41 61.4219H212.701L213.88 60.2172V67H211.261ZM223.517 67L218.855 60.3482H221.657L226.371 67H223.517ZM213.88 60.4791L212.701 59.1959H218.332C220.008 59.1959 221.273 58.838 222.129 58.1222C223.002 57.3889 223.438 56.3676 223.438 55.0582C223.438 53.7488 223.002 52.7361 222.129 52.0203C221.273 51.3045 220.008 50.9466 218.332 50.9466H212.701L213.88 49.6372V60.4791ZM232.671 56.5771H242.099V58.8031H232.671V56.5771ZM232.907 64.7216H243.592V67H230.288V48.6682H243.225V50.9466H232.907V64.7216ZM256.082 67.2095C254.668 67.2095 253.367 66.9825 252.18 66.5286C250.993 66.0572 249.963 65.4025 249.09 64.5645C248.217 63.709 247.536 62.7139 247.047 61.579C246.558 60.4442 246.314 59.1959 246.314 57.8341C246.314 56.4723 246.558 55.224 247.047 54.0892C247.536 52.9544 248.217 51.968 249.09 51.1299C249.98 50.2744 251.019 49.6197 252.206 49.1658C253.393 48.6944 254.703 48.4587 256.134 48.4587C257.584 48.4587 258.91 48.6944 260.115 49.1658C261.32 49.6372 262.341 50.3443 263.179 51.2871L261.555 52.9107C260.805 52.1775 259.984 51.645 259.094 51.3132C258.221 50.9641 257.269 50.7895 256.239 50.7895C255.192 50.7895 254.214 50.9641 253.306 51.3132C252.416 51.6624 251.639 52.1513 250.975 52.7798C250.329 53.4083 249.823 54.159 249.456 55.032C249.107 55.8875 248.933 56.8215 248.933 57.8341C248.933 58.8293 249.107 59.7633 249.456 60.6363C249.823 61.4917 250.329 62.2425 250.975 62.8884C251.639 63.517 252.416 64.0058 253.306 64.355C254.197 64.7042 255.166 64.8788 256.213 64.8788C257.191 64.8788 258.125 64.7304 259.015 64.4336C259.923 64.1193 260.761 63.6043 261.529 62.8884L263.022 64.8788C262.114 65.6469 261.049 66.2318 259.827 66.6334C258.622 67.0175 257.374 67.2095 256.082 67.2095ZM260.508 64.5383V57.7294H263.022V64.8788L260.508 64.5383ZM268.036 67V48.6682H270.655V67H268.036ZM281.486 67.2095C280.089 67.2095 278.753 67 277.479 66.581C276.204 66.1445 275.2 65.5858 274.467 64.9049L275.436 62.8623C276.134 63.4733 277.025 63.9796 278.107 64.3812C279.19 64.7827 280.316 64.9835 281.486 64.9835C282.55 64.9835 283.415 64.8613 284.078 64.6169C284.742 64.3724 285.23 64.0407 285.545 63.6217C285.859 63.1852 286.016 62.6964 286.016 62.1552C286.016 61.5267 285.807 61.0204 285.388 60.6363C284.986 60.2522 284.454 59.9466 283.79 59.7197C283.144 59.4752 282.428 59.2657 281.643 59.0912C280.857 58.9166 280.063 58.7158 279.26 58.4888C278.474 58.2444 277.749 57.9389 277.086 57.5722C276.44 57.2056 275.916 56.7168 275.515 56.1057C275.113 55.4772 274.912 54.6741 274.912 53.6964C274.912 52.7536 275.157 51.8894 275.646 51.1037C276.152 50.3006 276.92 49.6634 277.95 49.192C278.998 48.7032 280.324 48.4587 281.931 48.4587C282.996 48.4587 284.052 48.5984 285.099 48.8777C286.147 49.1571 287.055 49.5586 287.823 50.0824L286.959 52.1775C286.173 51.6537 285.344 51.2783 284.471 51.0514C283.598 50.8069 282.751 50.6847 281.931 50.6847C280.901 50.6847 280.054 50.8157 279.39 51.0776C278.727 51.3394 278.238 51.6886 277.924 52.1251C277.627 52.5616 277.479 53.0504 277.479 53.5916C277.479 54.2376 277.679 54.7526 278.081 55.1367C278.5 55.5208 279.033 55.8264 279.679 56.0533C280.342 56.2803 281.066 56.4898 281.852 56.6818C282.638 56.8564 283.423 57.0572 284.209 57.2842C285.012 57.5111 285.737 57.8079 286.383 58.1746C287.046 58.5412 287.579 59.03 287.98 59.6411C288.382 60.2522 288.583 61.0378 288.583 61.998C288.583 62.9234 288.329 63.7876 287.823 64.5907C287.317 65.3763 286.531 66.0136 285.466 66.5024C284.419 66.9738 283.092 67.2095 281.486 67.2095ZM295.793 67V50.9466H289.508V48.6682H304.671V50.9466H298.386V67H295.793ZM307.523 67V48.6682H314.672C316.279 48.6682 317.649 48.9214 318.784 49.4277C319.919 49.934 320.792 50.6673 321.403 51.6275C322.014 52.5877 322.319 53.7313 322.319 55.0582C322.319 56.385 322.014 57.5286 321.403 58.4888C320.792 59.4316 319.919 60.1561 318.784 60.6624C317.649 61.1688 316.279 61.4219 314.672 61.4219H308.963L310.142 60.2172V67H307.523ZM319.779 67L315.118 60.3482H317.92L322.634 67H319.779ZM310.142 60.4791L308.963 59.1959H314.594C316.27 59.1959 317.536 58.838 318.391 58.1222C319.264 57.3889 319.7 56.3676 319.7 55.0582C319.7 53.7488 319.264 52.7361 318.391 52.0203C317.536 51.3045 316.27 50.9466 314.594 50.9466H308.963L310.142 49.6372V60.4791ZM323.774 67L332.076 48.6682H334.669L342.997 67H340.247L332.836 50.1348H333.883L326.472 67H323.774ZM327.31 62.4171L328.017 60.322H338.335L339.095 62.4171H327.31ZM348.451 67V50.9466H342.165V48.6682H357.328V50.9466H351.043V67H348.451ZM360.181 67V48.6682H362.8V67H360.181ZM376.563 67.2095C375.167 67.2095 373.866 66.9738 372.661 66.5024C371.474 66.031 370.444 65.3763 369.571 64.5383C368.698 63.6828 368.017 62.6877 367.528 61.5528C367.04 60.418 366.795 59.1784 366.795 57.8341C366.795 56.4898 367.04 55.2502 367.528 54.1154C368.017 52.9806 368.698 51.9941 369.571 51.1561C370.444 50.3006 371.474 49.6372 372.661 49.1658C373.848 48.6944 375.149 48.4587 376.563 48.4587C377.96 48.4587 379.243 48.6944 380.413 49.1658C381.6 49.6197 382.63 50.2744 383.503 51.1299C384.394 51.968 385.075 52.9544 385.546 54.0892C386.035 55.224 386.279 56.4723 386.279 57.8341C386.279 59.1959 386.035 60.4442 385.546 61.579C385.075 62.7139 384.394 63.709 383.503 64.5645C382.63 65.4025 381.6 66.0572 380.413 66.5286C379.243 66.9825 377.96 67.2095 376.563 67.2095ZM376.563 64.8788C377.576 64.8788 378.51 64.7042 379.365 64.355C380.238 64.0058 380.989 63.517 381.618 62.8884C382.264 62.2425 382.761 61.4917 383.11 60.6363C383.477 59.7808 383.66 58.8467 383.66 57.8341C383.66 56.8215 383.477 55.8875 383.11 55.032C382.761 54.1765 382.264 53.4345 381.618 52.806C380.989 52.16 380.238 51.6624 379.365 51.3132C378.51 50.9641 377.576 50.7895 376.563 50.7895C375.533 50.7895 374.582 50.9641 373.709 51.3132C372.853 51.6624 372.103 52.16 371.457 52.806C370.811 53.4345 370.304 54.1765 369.938 55.032C369.589 55.8875 369.414 56.8215 369.414 57.8341C369.414 58.8467 369.589 59.7808 369.938 60.6363C370.304 61.4917 370.811 62.2425 371.457 62.8884C372.103 63.517 372.853 64.0058 373.709 64.355C374.582 64.7042 375.533 64.8788 376.563 64.8788ZM390.282 67V48.6682H392.429L404.554 63.7265H403.428V48.6682H406.047V67H403.9L391.775 51.9418H392.901V67H390.282ZM137.555 99V80.6682H140.174V99H137.555ZM145.662 99V80.6682H147.81L159.935 95.7265H158.809V80.6682H161.428V99H159.28L147.155 83.9418H148.281V99H145.662ZM173.948 99V80.6682H181.097C182.703 80.6682 184.074 80.9214 185.209 81.4277C186.343 81.934 187.216 82.6673 187.827 83.6275C188.438 84.5877 188.744 85.7313 188.744 87.0582C188.744 88.385 188.438 89.5286 187.827 90.4888C187.216 91.4316 186.343 92.1649 185.209 92.6886C184.074 93.1949 182.703 93.4481 181.097 93.4481H175.388L176.566 92.2172V99H173.948ZM176.566 92.4791L175.388 91.1697H181.018C182.694 91.1697 183.96 90.8118 184.816 90.096C185.689 89.3802 186.125 88.3676 186.125 87.0582C186.125 85.7488 185.689 84.7361 184.816 84.0203C183.96 83.3045 182.694 82.9466 181.018 82.9466H175.388L176.566 81.6372V92.4791ZM192.591 99V80.6682H199.741C201.347 80.6682 202.717 80.9214 203.852 81.4277C204.987 81.934 205.86 82.6673 206.471 83.6275C207.082 84.5877 207.388 85.7313 207.388 87.0582C207.388 88.385 207.082 89.5286 206.471 90.4888C205.86 91.4316 204.987 92.1561 203.852 92.6624C202.717 93.1688 201.347 93.4219 199.741 93.4219H194.032L195.21 92.2172V99H192.591ZM204.847 99L200.186 92.3482H202.988L207.702 99H204.847ZM195.21 92.4791L194.032 91.1959H199.662C201.338 91.1959 202.604 90.838 203.459 90.1222C204.332 89.3889 204.769 88.3676 204.769 87.0582C204.769 85.7488 204.332 84.7361 203.459 84.0203C202.604 83.3045 201.338 82.9466 199.662 82.9466H194.032L195.21 81.6372V92.4791ZM219.894 99.2095C218.498 99.2095 217.197 98.9738 215.992 98.5024C214.805 98.031 213.775 97.3763 212.902 96.5383C212.029 95.6828 211.348 94.6877 210.859 93.5528C210.37 92.418 210.126 91.1784 210.126 89.8341C210.126 88.4898 210.37 87.2502 210.859 86.1154C211.348 84.9806 212.029 83.9941 212.902 83.1561C213.775 82.3006 214.805 81.6372 215.992 81.1658C217.179 80.6944 218.48 80.4587 219.894 80.4587C221.291 80.4587 222.574 80.6944 223.744 81.1658C224.931 81.6197 225.961 82.2744 226.834 83.1299C227.725 83.968 228.405 84.9544 228.877 86.0892C229.366 87.224 229.61 88.4723 229.61 89.8341C229.61 91.1959 229.366 92.4442 228.877 93.579C228.405 94.7139 227.725 95.709 226.834 96.5645C225.961 97.4025 224.931 98.0572 223.744 98.5286C222.574 98.9825 221.291 99.2095 219.894 99.2095ZM219.894 96.8788C220.907 96.8788 221.841 96.7042 222.696 96.355C223.569 96.0058 224.32 95.517 224.949 94.8884C225.595 94.2425 226.092 93.4917 226.441 92.6363C226.808 91.7808 226.991 90.8467 226.991 89.8341C226.991 88.8215 226.808 87.8875 226.441 87.032C226.092 86.1765 225.595 85.4345 224.949 84.806C224.32 84.16 223.569 83.6624 222.696 83.3132C221.841 82.9641 220.907 82.7895 219.894 82.7895C218.864 82.7895 217.913 82.9641 217.04 83.3132C216.184 83.6624 215.434 84.16 214.788 84.806C214.142 85.4345 213.635 86.1765 213.269 87.032C212.919 87.8875 212.745 88.8215 212.745 89.8341C212.745 90.8467 212.919 91.7808 213.269 92.6363C213.635 93.4917 214.142 94.2425 214.788 94.8884C215.434 95.517 216.184 96.0058 217.04 96.355C217.913 96.7042 218.864 96.8788 219.894 96.8788ZM241.888 99.2095C240.474 99.2095 239.173 98.9825 237.986 98.5286C236.799 98.0572 235.769 97.4025 234.896 96.5645C234.023 95.709 233.342 94.7139 232.853 93.579C232.364 92.4442 232.12 91.1959 232.12 89.8341C232.12 88.4723 232.364 87.224 232.853 86.0892C233.342 84.9544 234.023 83.968 234.896 83.1299C235.786 82.2744 236.825 81.6197 238.012 81.1658C239.2 80.6944 240.509 80.4587 241.941 80.4587C243.39 80.4587 244.717 80.6944 245.921 81.1658C247.126 81.6372 248.147 82.3443 248.985 83.2871L247.362 84.9107C246.611 84.1775 245.79 83.645 244.9 83.3132C244.027 82.9641 243.075 82.7895 242.045 82.7895C240.998 82.7895 240.02 82.9641 239.112 83.3132C238.222 83.6624 237.445 84.1513 236.782 84.7798C236.136 85.4083 235.629 86.159 235.263 87.032C234.913 87.8875 234.739 88.8215 234.739 89.8341C234.739 90.8293 234.913 91.7633 235.263 92.6363C235.629 93.4917 236.136 94.2425 236.782 94.8884C237.445 95.517 238.222 96.0058 239.112 96.355C240.003 96.7042 240.972 96.8788 242.019 96.8788C242.997 96.8788 243.931 96.7304 244.821 96.4336C245.729 96.1193 246.567 95.6043 247.335 94.8884L248.828 96.8788C247.92 97.6469 246.855 98.2318 245.633 98.6334C244.429 99.0175 243.18 99.2095 241.888 99.2095ZM246.314 96.5383V89.7294H248.828V96.8788L246.314 96.5383ZM253.842 99V80.6682H260.992C262.598 80.6682 263.968 80.9214 265.103 81.4277C266.238 81.934 267.111 82.6673 267.722 83.6275C268.333 84.5877 268.639 85.7313 268.639 87.0582C268.639 88.385 268.333 89.5286 267.722 90.4888C267.111 91.4316 266.238 92.1561 265.103 92.6624C263.968 93.1688 262.598 93.4219 260.992 93.4219H255.283L256.461 92.2172V99H253.842ZM266.098 99L261.437 92.3482H264.239L268.953 99H266.098ZM256.461 92.4791L255.283 91.1959H260.913C262.589 91.1959 263.855 90.838 264.71 90.1222C265.583 89.3889 266.02 88.3676 266.02 87.0582C266.02 85.7488 265.583 84.7361 264.71 84.0203C263.855 83.3045 262.589 82.9466 260.913 82.9466H255.283L256.461 81.6372V92.4791ZM275.253 88.5771H284.68V90.8031H275.253V88.5771ZM275.488 96.7216H286.173V99H272.87V80.6682H285.807V82.9466H275.488V96.7216ZM295.756 99.2095C294.359 99.2095 293.024 99 291.749 98.581C290.475 98.1445 289.471 97.5858 288.738 96.9049L289.707 94.8623C290.405 95.4733 291.295 95.9796 292.378 96.3812C293.46 96.7827 294.586 96.9835 295.756 96.9835C296.821 96.9835 297.685 96.8613 298.349 96.6169C299.012 96.3724 299.501 96.0407 299.815 95.6217C300.129 95.1852 300.287 94.6964 300.287 94.1552C300.287 93.5267 300.077 93.0204 299.658 92.6363C299.257 92.2522 298.724 91.9466 298.061 91.7197C297.415 91.4752 296.699 91.2657 295.913 91.0912C295.128 90.9166 294.333 90.7158 293.53 90.4888C292.744 90.2444 292.02 89.9389 291.356 89.5722C290.71 89.2056 290.187 88.7168 289.785 88.1057C289.384 87.4772 289.183 86.6741 289.183 85.6964C289.183 84.7536 289.427 83.8894 289.916 83.1037C290.422 82.3006 291.191 81.6634 292.221 81.192C293.268 80.7032 294.595 80.4587 296.201 80.4587C297.266 80.4587 298.323 80.5984 299.37 80.8777C300.418 81.1571 301.325 81.5586 302.094 82.0824L301.229 84.1775C300.444 83.6537 299.614 83.2783 298.742 83.0514C297.869 82.8069 297.022 82.6847 296.201 82.6847C295.171 82.6847 294.324 82.8157 293.661 83.0776C292.998 83.3394 292.509 83.6886 292.194 84.1251C291.898 84.5616 291.749 85.0504 291.749 85.5916C291.749 86.2376 291.95 86.7526 292.352 87.1367C292.771 87.5208 293.303 87.8264 293.949 88.0533C294.613 88.2803 295.337 88.4898 296.123 88.6818C296.908 88.8564 297.694 89.0572 298.48 89.2842C299.283 89.5111 300.007 89.8079 300.653 90.1746C301.317 90.5412 301.849 91.03 302.251 91.6411C302.652 92.2522 302.853 93.0378 302.853 93.998C302.853 94.9234 302.6 95.7876 302.094 96.5907C301.587 97.3763 300.802 98.0136 299.737 98.5024C298.689 98.9738 297.362 99.2095 295.756 99.2095ZM312.021 99.2095C310.625 99.2095 309.289 99 308.015 98.581C306.74 98.1445 305.736 97.5858 305.003 96.9049L305.972 94.8623C306.67 95.4733 307.561 95.9796 308.643 96.3812C309.726 96.7827 310.852 96.9835 312.021 96.9835C313.086 96.9835 313.951 96.8613 314.614 96.6169C315.277 96.3724 315.766 96.0407 316.081 95.6217C316.395 95.1852 316.552 94.6964 316.552 94.1552C316.552 93.5267 316.342 93.0204 315.923 92.6363C315.522 92.2522 314.989 91.9466 314.326 91.7197C313.68 91.4752 312.964 91.2657 312.179 91.0912C311.393 90.9166 310.599 90.7158 309.795 90.4888C309.01 90.2444 308.285 89.9389 307.622 89.5722C306.976 89.2056 306.452 88.7168 306.051 88.1057C305.649 87.4772 305.448 86.6741 305.448 85.6964C305.448 84.7536 305.693 83.8894 306.181 83.1037C306.688 82.3006 307.456 81.6634 308.486 81.192C309.534 80.7032 310.86 80.4587 312.467 80.4587C313.532 80.4587 314.588 80.5984 315.635 80.8777C316.683 81.1571 317.591 81.5586 318.359 82.0824L317.495 84.1775C316.709 83.6537 315.88 83.2783 315.007 83.0514C314.134 82.8069 313.287 82.6847 312.467 82.6847C311.437 82.6847 310.59 82.8157 309.926 83.0776C309.263 83.3394 308.774 83.6886 308.46 84.1251C308.163 84.5616 308.015 85.0504 308.015 85.5916C308.015 86.2376 308.215 86.7526 308.617 87.1367C309.036 87.5208 309.568 87.8264 310.214 88.0533C310.878 88.2803 311.602 88.4898 312.388 88.6818C313.174 88.8564 313.959 89.0572 314.745 89.2842C315.548 89.5111 316.273 89.8079 316.919 90.1746C317.582 90.5412 318.115 91.03 318.516 91.6411C318.918 92.2522 319.118 93.0378 319.118 93.998C319.118 94.9234 318.865 95.7876 318.359 96.5907C317.853 97.3763 317.067 98.0136 316.002 98.5024C314.955 98.9738 313.628 99.2095 312.021 99.2095Z" fill="#34A853"/>
<rect x="1.5" y="1.5" width="452" height="145" rx="24.5" stroke="#1B94F6" stroke-width="3" stroke-dasharray="15 15"/>
</svg>
